<?xml version="1.0" standalone="no"?>
<!DOCTYPE svg PUBLIC "-//W3C//DTD SVG 20010904//EN"
 "http://www.w3.org/TR/2001/REC-SVG-20010904/DTD/svg10.dtd">
<svg version="1.0" xmlns="http://www.w3.org/2000/svg"
 width="500.000000pt" height="188.000000pt" viewBox="0 0 500.000000 188.000000"
 preserveAspectRatio="xMidYMid meet">

<g transform="translate(0.000000,188.000000) scale(0.100000,-0.100000)"
fill="#000000" stroke="none">
<path fill="#083358" d="M165 1438 c-3 -7 -4 -240 -3 -518 l3 -505 242 -3 243 -2 0 95 0 95
-145 0 -145 0 0 120 0 120 208 2 207 3 3 88 3 87 -211 0 -210 0 0 125 0 125
145 0 145 0 0 90 0 90 -240 0 c-183 0 -242 -3 -245 -12z"/>
<path fill="#083358" d="M960 1130 l0 -320 95 0 95 0 0 320 0 320 -95 0 -95 0 0 -320z"/>
<path fill="#083358" d="M1830 1020 l0 -429 -57 -3 -58 -3 0 -85 0 -85 213 -3 213 -2 -3 87
-3 88 -55 1 -55 1 -3 431 -2 432 -95 0 -95 0 0 -430z"/>
<path fill="#0D63A5" d="M2739 1434 c-284 -51 -420 -215 -420 -504 0 -221 76 -366 232 -444
105 -53 196 -69 389 -70 l165 -1 3 323 2 322 -200 0 -200 0 0 -100 0 -100 100
0 100 0 0 -131 0 -132 -83 5 c-142 9 -227 60 -279 166 -31 62 -33 74 -33 167
0 89 3 106 28 157 32 64 80 111 146 142 40 17 72 21 231 26 l185 5 0 90 0 90
-145 2 c-89 1 -175 -4 -221 -13z"/>
<path fill="#0D63A5" d="M3295 1438 c-3 -7 -4 -240 -3 -518 l3 -505 248 -3 247 -2 0 95 0 95
-150 0 -150 0 0 120 0 120 210 0 211 0 -3 93 -3 92 -207 3 -208 2 0 120 0 120
150 0 150 0 0 90 0 90 -245 0 c-187 0 -247 -3 -250 -12z"/>
<path fill="#0D63A5" d="M4090 1361 l0 -91 178 0 c245 -1 296 -16 322 -95 14 -42 -6 -101 -43
-129 -26 -20 -44 -21 -243 -24 l-214 -3 2 -302 3 -302 95 0 95 0 3 208 2 207
58 0 57 -1 89 -197 c50 -108 94 -203 99 -210 10 -13 207 -18 207 -4 0 4 -45
106 -101 226 -55 120 -99 219 -97 220 136 62 196 161 186 307 -9 126 -67 206
-182 253 -45 18 -77 21 -283 24 l-233 4 0 -91z"/>
<path fill="#083358" d="M962 508 l3 -93 280 0 280 0 3 93 3 92 -286 0 -286 0 3 -92z"/>
</g>
</svg>
