<svg width="1920" height="1080" viewBox="0 0 1920 1080" fill="none" xmlns="http://www.w3.org/2000/svg">
<path d="M0 1044.24L64 995.598C128 946.96 256 849.683 384 830.986C512 812.162 640 872.044 768 935.59C896 999.136 1024 1066.6 1152 1052.7C1280 1038.8 1408 943.549 1536 935.337C1664 927.126 1792 1005.96 1856 1045.25L1920 1084.66V477H1856C1792 477 1664 477 1536 477C1408 477 1280 477 1152 477C1024 477 896 477 768 477C640 477 512 477 384 477C256 477 128 477 64 477H0V1044.24Z" fill="#33495F"/>
<path d="M0 955.803L64 913.229C128 870.781 256 785.632 384 781.211C512 776.789 640 853.094 768 898.574C896 944.054 1024 958.709 1152 944.433C1280 930.158 1408 886.699 1536 892.258C1664 897.69 1792 952.013 1856 979.175L1920 1006.34V477H1856C1792 477 1664 477 1536 477C1408 477 1280 477 1152 477C1024 477 896 477 768 477C640 477 512 477 384 477C256 477 128 477 64 477H0V955.803Z" fill="#1A2C3F"/>
<path d="M0 602.65L64 632.97C128 663.29 256 723.93 384 757.661C512 791.266 640 798.088 768 781.412C896 764.736 1024 724.814 1152 690.199C1280 655.71 1408 626.653 1536 628.296C1664 630.064 1792 662.406 1856 678.703L1920 694.873V470H1856C1792 470 1664 470 1536 470C1408 470 1280 470 1152 470C1024 470 896 470 768 470C640 470 512 470 384 470C256 470 128 470 64 470H0V602.65Z" fill="#001122"/>
<rect width="1920" height="477" fill="#001122"/>
</svg>
