<svg width="1920" height="1080" viewBox="0 0 1920 1080" fill="none" xmlns="http://www.w3.org/2000/svg">
<path d="M0 1039.74L64 991.298C128 942.858 256 845.978 384 827.357C512 808.61 640 868.248 768 931.534C896 994.821 1024 1062.01 1152 1048.17C1280 1034.33 1408 939.461 1536 931.283C1664 923.104 1792 1001.62 1856 1040.74L1920 1080V474.813H1856C1792 474.813 1664 474.813 1536 474.813C1408 474.813 1280 474.813 1152 474.813C1024 474.813 896 474.813 768 474.813C640 474.813 512 474.813 384 474.813C256 474.813 128 474.813 64 474.813H0V1039.74Z" fill="#33495F"/>
<path d="M0 951.665L64 909.264C128 866.989 256 782.188 384 777.784C512 773.38 640 849.375 768 894.669C896 939.964 1024 954.559 1152 940.342C1280 926.124 1408 882.843 1536 888.379C1664 893.789 1792 947.891 1856 974.942L1920 1001.99V474.813H1856C1792 474.813 1664 474.813 1536 474.813C1408 474.813 1280 474.813 1152 474.813C1024 474.813 896 474.813 768 474.813C640 474.813 512 474.813 384 474.813C256 474.813 128 474.813 64 474.813H0V951.665Z" fill="#1A2C3F"/>
<path d="M0 599.951L64 630.148C128 660.344 256 720.737 384 754.33C512 787.798 640 794.592 768 777.984C896 761.376 1024 721.618 1152 687.143C1280 652.795 1408 623.857 1536 625.492C1664 627.254 1792 659.463 1856 675.694L1920 691.799V467.842H1856C1792 467.842 1664 467.842 1536 467.842C1408 467.842 1280 467.842 1152 467.842C1024 467.842 896 467.842 768 467.842C640 467.842 512 467.842 384 467.842C256 467.842 128 467.842 64 467.842H0V599.951Z" fill="#001122"/>
<rect y="-0.242737" width="1920" height="475.056" fill="#001122"/>
<g opacity="0.1">
<path d="M194 482.945C194.005 473.889 191.972 464.954 188.059 456.834C184.147 448.714 178.46 441.627 171.44 436.124C164.421 430.621 156.257 426.851 147.585 425.105C138.912 423.359 129.963 423.686 121.433 426.058C112.904 428.431 105.023 432.787 98.4026 438.787C91.7825 444.787 86.6015 452.27 83.2621 460.654C79.9227 469.039 78.5147 478.099 79.1476 487.132C79.7805 496.164 82.4372 504.926 86.9114 512.736V512.945C89.1135 516.747 91.8457 519.463 94.6596 523.474L128.018 568.766C128.987 570.081 130.241 571.148 131.681 571.883C133.121 572.618 134.708 573 136.317 573C137.925 573 139.512 572.618 140.952 571.883C142.392 571.148 143.646 570.081 144.615 568.766L177.239 524.226C180.224 520.61 183.015 516.83 185.599 512.903C190.993 503.879 193.896 493.525 194 482.945ZM136.5 508.599C131.488 508.607 126.586 507.092 122.415 504.244C118.244 501.396 114.992 497.344 113.07 492.601C111.149 487.858 110.644 482.638 111.619 477.601C112.595 472.563 115.008 467.936 118.552 464.305C122.096 460.674 126.612 458.202 131.529 457.202C136.445 456.202 141.54 456.719 146.169 458.689C150.798 460.658 154.753 463.99 157.533 468.263C160.312 472.536 161.792 477.559 161.784 482.694C161.773 489.561 159.106 496.144 154.366 501C149.627 505.855 143.202 508.588 136.5 508.599Z" fill="white"/>
<path d="M1059 276.046C1059.02 266.984 1056.76 258.039 1052.38 249.907C1048 241.775 1041.62 234.675 1033.75 229.161C1025.87 223.646 1016.71 219.865 1006.98 218.112C997.24 216.36 987.193 216.682 977.615 219.054C968.038 221.426 959.189 225.785 951.757 231.79C944.325 237.795 938.511 245.286 934.767 253.678C931.023 262.071 929.45 271.139 930.17 280.177C930.89 289.216 933.885 297.98 938.92 305.789V306.04C941.39 309.841 944.501 312.557 947.657 316.567L985.168 361.767C986.255 363.082 987.662 364.149 989.277 364.883C990.893 365.618 992.672 366 994.477 366C996.281 366 998.061 365.618 999.677 364.883C1001.29 364.149 1002.7 363.082 1003.79 361.767L1040.7 317.277C1043.98 313.664 1047.04 309.885 1049.85 305.956C1055.8 296.921 1058.96 286.587 1059 276.046ZM994.5 301.695C988.881 301.695 983.389 300.174 978.717 297.323C974.046 294.473 970.405 290.421 968.255 285.681C966.105 280.941 965.542 275.725 966.638 270.692C967.734 265.66 970.44 261.038 974.413 257.41C978.386 253.782 983.447 251.311 988.958 250.31C994.468 249.309 1000.18 249.823 1005.37 251.786C1010.56 253.75 1015 257.075 1018.12 261.341C1021.24 265.607 1022.91 270.623 1022.91 275.753C1022.91 279.164 1022.17 282.54 1020.74 285.691C1019.31 288.841 1017.21 291.702 1014.57 294.112C1011.93 296.521 1008.79 298.431 1005.34 299.733C1001.89 301.034 998.188 301.701 994.454 301.695H994.5Z" fill="white"/>
<path d="M768 688.507C768.022 682.293 766.445 676.158 763.393 670.58C760.34 665.002 755.893 660.131 750.399 656.347C744.905 652.563 738.512 649.969 731.717 648.765C724.922 647.561 717.91 647.781 711.225 649.407C704.541 651.033 698.364 654.022 693.178 658.14C687.991 662.258 683.934 667.395 681.322 673.151C678.711 678.907 677.615 685.125 678.12 691.323C678.625 697.521 680.718 703.531 684.236 708.884C685.957 711.473 688.145 713.352 690.332 716.066L716.438 747.132C717.198 748.024 718.177 748.747 719.299 749.244C720.421 749.741 721.655 750 722.907 750C724.158 750 725.392 749.741 726.514 749.244C727.636 748.747 728.615 748.024 729.375 747.132L755.063 716.609C757.401 714.126 759.591 711.533 761.624 708.842C765.733 702.696 767.935 695.675 768 688.507ZM723 706.087C719.077 706.095 715.24 705.059 711.973 703.109C708.707 701.16 706.159 698.384 704.651 695.135C703.144 691.885 702.745 688.307 703.504 684.854C704.264 681.401 706.148 678.228 708.919 675.736C711.69 673.244 715.222 671.546 719.069 670.856C722.915 670.166 726.904 670.516 730.529 671.861C734.154 673.206 737.253 675.486 739.433 678.412C741.614 681.338 742.777 684.779 742.777 688.299C742.784 690.633 742.276 692.945 741.285 695.103C740.294 697.261 738.838 699.222 737.001 700.874C735.164 702.526 732.982 703.837 730.579 704.732C728.177 705.626 725.601 706.087 723 706.087Z" fill="white"/>
<path d="M491 141.636C491.014 130.634 488.139 119.778 482.597 109.911C477.056 100.044 468.998 91.4316 459.049 84.7431C449.101 78.0546 437.53 73.4703 425.235 71.3463C412.94 69.2223 400.253 69.6158 388.16 72.4964C376.067 75.377 364.893 80.667 355.507 87.9553C346.121 95.2435 338.775 104.334 334.041 114.52C329.307 124.706 327.311 135.713 328.21 146.686C329.108 157.659 332.877 168.302 339.222 177.789L339.459 178.039C342.55 182.673 346.497 185.971 350.443 190.814L397.755 245.879C399.13 247.47 400.906 248.761 402.943 249.649C404.981 250.538 407.225 251 409.5 251C411.775 251 414.019 250.538 416.057 249.649C418.094 248.761 419.87 247.47 421.245 245.879L467.796 191.607C472.036 187.215 475.989 182.616 479.636 177.831C487.032 166.871 490.956 154.374 491 141.636ZM409.452 172.779C402.35 172.779 395.407 170.93 389.503 167.464C383.598 163.999 378.996 159.074 376.281 153.312C373.565 147.55 372.857 141.211 374.246 135.095C375.635 128.98 379.059 123.364 384.084 118.958C389.11 114.551 395.511 111.553 402.478 110.341C409.445 109.13 416.665 109.76 423.224 112.152C429.783 114.544 435.386 118.59 439.325 123.779C443.264 128.968 445.362 135.066 445.352 141.302C445.34 149.654 441.552 157.66 434.821 163.562C428.09 169.464 418.965 172.779 409.452 172.779Z" fill="white"/>
<path d="M1829 216.325C1828.95 206.237 1824.86 196.528 1817.53 189.099C1810.2 181.67 1800.15 177.056 1789.35 176.16C1778.56 175.264 1767.79 178.151 1759.16 184.255C1750.53 190.36 1744.66 199.242 1742.7 209.163C1740.84 218.658 1742.72 228.457 1748.01 236.762C1749.67 239.358 1751.79 241.243 1753.9 244.007L1779.14 275.124C1779.88 276.018 1780.83 276.743 1781.91 277.242C1783 277.741 1784.19 278 1785.4 278C1786.61 278 1787.8 277.741 1788.89 277.242C1789.97 276.743 1790.92 276.018 1791.65 275.124L1816.49 244.51C1818.75 242.019 1820.87 239.419 1822.84 236.72C1826.81 230.555 1828.94 223.513 1829 216.325ZM1785.49 233.956C1781.69 233.964 1777.98 232.924 1774.82 230.967C1771.66 229.01 1769.2 226.224 1767.74 222.962C1766.29 219.7 1765.9 216.11 1766.64 212.645C1767.38 209.18 1769.21 205.998 1771.89 203.5C1774.57 201.002 1777.99 199.302 1781.72 198.615C1785.44 197.928 1789.3 198.285 1792.8 199.641C1796.3 200.996 1799.3 203.289 1801.4 206.23C1803.5 209.17 1804.62 212.625 1804.61 216.157C1804.61 220.878 1802.6 225.405 1799.01 228.743C1795.42 232.081 1790.56 233.956 1785.49 233.956Z" fill="white"/>
</g>
</svg>
