<svg width="750" height="500" viewBox="0 0 750 500" fill="none" xmlns="http://www.w3.org/2000/svg">
<path d="M686.46 178.67C687.685 180.026 688.625 181.614 689.222 183.341C689.82 185.068 690.064 186.897 689.94 188.72C689.667 192.369 688.558 195.907 686.7 199.06C683.3 205.24 676.94 210.26 670.84 213.81C667.34 206.81 669.5 197.98 670.84 193.58C673.01 186.58 681.17 175.35 686.42 178.67" fill="#22B84C"/>
<path d="M672.79 227.11C673.179 225.105 674.092 223.238 675.436 221.7C676.779 220.161 678.506 219.006 680.44 218.35C682.381 217.723 684.428 217.489 686.461 217.66C688.493 217.832 690.471 218.406 692.28 219.35C693.96 220.19 695.62 221.47 696.03 223.35C696.162 224.222 696.062 225.112 695.739 225.933C695.415 226.753 694.881 227.473 694.19 228.02C692.789 229.102 691.125 229.792 689.37 230.02C683.37 231.02 677.48 230.94 672.79 227.14" fill="#22B84C"/>
<path d="M657.63 244.1C657.841 243.663 658.088 243.245 658.37 242.85L660.51 239.53C662.35 236.77 664.89 232.78 668.95 229.53C672.35 226.713 676.441 224.856 680.8 224.15C682.124 223.956 683.467 223.922 684.8 224.05C685.159 224.079 685.517 224.129 685.87 224.2C686.12 224.2 686.24 224.27 686.24 224.29C684.45 224.182 682.655 224.256 680.88 224.51C676.604 225.326 672.606 227.215 669.26 230C665.26 233.15 662.72 237.06 660.81 239.77C659.86 241.14 659.09 242.25 658.53 243C658.267 243.395 657.966 243.764 657.63 244.1Z" fill="#E0E0E0"/>
<path d="M681 187.8C680.957 188.008 680.896 188.212 680.82 188.41L680.24 190.12C679.72 191.61 678.94 193.74 677.96 196.37C675.96 201.63 673.17 208.86 669.88 216.77C666.59 224.68 663.45 231.77 661.1 236.89C659.93 239.44 658.96 241.49 658.28 242.89C657.95 243.55 657.68 244.09 657.48 244.51C657.394 244.703 657.29 244.887 657.17 245.06C657.217 244.856 657.288 244.658 657.38 244.47C657.57 244.04 657.8 243.47 658.1 242.8L660.77 236.72C663.03 231.58 666.12 224.47 669.41 216.56C672.7 208.65 675.57 201.45 677.62 196.22L680.05 190.03C680.33 189.35 680.55 188.79 680.73 188.36C680.799 188.164 680.889 187.976 681 187.8Z" fill="#E0E0E0"/>
<path d="M661.73 227.18C662.689 222.98 662.632 218.611 661.564 214.437C660.496 210.263 658.448 206.404 655.59 203.18C654.13 201.55 651.98 200.01 649.92 200.75C647.86 201.49 647.2 204.06 647.16 206.25C647.155 210.821 648.503 215.291 651.033 219.097C653.563 222.903 657.164 225.876 661.38 227.64" fill="#22B84C"/>
<path d="M654 209.71C654.354 210.006 654.672 210.342 654.95 210.71C655.312 211.096 655.646 211.507 655.95 211.94C656.32 212.45 656.78 212.99 657.19 213.67C657.665 214.387 658.102 215.128 658.5 215.89C658.975 216.755 659.399 217.646 659.77 218.56C660.623 220.664 661.234 222.858 661.59 225.1C661.911 227.346 661.971 229.621 661.77 231.88C661.679 232.865 661.529 233.843 661.32 234.81C661.155 235.656 660.938 236.491 660.67 237.31C660.469 237.989 660.232 238.657 659.96 239.31C659.774 239.811 659.553 240.299 659.3 240.77C659.124 241.191 658.906 241.593 658.65 241.97C658.54 241.97 659.47 240.2 660.33 237.2C660.565 236.388 660.755 235.563 660.9 234.73C661.086 233.775 661.219 232.81 661.3 231.84C661.476 229.616 661.405 227.379 661.09 225.17C660.734 222.971 660.147 220.816 659.34 218.74C658.94 217.79 658.57 216.89 658.13 216.08C657.752 215.319 657.334 214.578 656.88 213.86C655.2 211.2 653.86 209.78 654 209.71Z" fill="#E0E0E0"/>
<path d="M65.06 116.34C65.06 116.34 55.86 119.34 64.78 139.04C73.7 158.74 80.07 168.62 80.07 168.62C80.07 168.62 81.6 173.17 77.8 173.69C74 174.21 65.8 172.5 63.88 177.03C61.88 181.72 65.18 186.39 72.03 190.68C78.88 194.97 93.55 204.9 94.87 205.8C96.19 206.7 97.41 208.8 94.87 209.6C92.33 210.4 73.6 211.44 74.64 220.3C75.68 229.16 96.74 238 99 239C101.26 240 101.79 241 101.54 242.28C101.29 243.56 94.96 243.28 89.64 243.84C84.32 244.4 78.25 245.9 79.28 250.96C80.31 256.02 92.5 267.13 123.16 271.59L137.5 272.73L145.88 260.96C162.3 234.69 161.7 218.21 158.51 214.15C155.32 210.09 150.21 213.73 146.38 217.45C142.55 221.17 138.62 226.15 137.5 225.52C136.38 224.89 135.93 223.85 136.63 221.46C137.33 219.07 144.24 197.32 138.15 190.8C132.06 184.28 119.15 197.88 116.91 199.32C114.67 200.76 113.86 198.42 114.02 196.85C114.18 195.28 116.08 177.65 117.24 169.65C118.4 161.65 116.95 156.15 112.1 154.65C107.42 153.17 103.4 160.55 100.55 163.11C97.7 165.67 95.22 161.56 95.22 161.56C95.22 161.56 91.81 150.34 82.53 130.78C73.25 111.22 64.86 116.49 64.86 116.49" fill="#22B84C"/>
<path d="M138.1 276.12C131.34 261.72 119.76 235.94 109.7 213.86C99.64 191.78 90.52 171.8 83.83 157.38L75.9 140.3L73.75 135.66L73.2 134.44C73.1245 134.298 73.0577 134.151 73 134C73 134 73.08 134.13 73.22 134.4L73.81 135.6C74.32 136.67 75.07 138.22 76.04 140.21C77.97 144.21 80.72 150.02 84.1 157.21C90.86 171.6 100.03 191.56 110.1 213.64C120.17 235.72 131.7 261.56 138.39 276" fill="#E0E0E0"/>
<path d="M75.3 179.88C75.6431 179.958 75.9779 180.068 76.3 180.21C76.92 180.44 77.82 180.81 78.92 181.27C81.12 182.2 84.13 183.56 87.43 185.12L95.85 189.12L98.41 190.32C98.7314 190.45 99.0395 190.611 99.33 190.8C98.9846 190.736 98.6486 190.628 98.33 190.48C97.7 190.25 96.81 189.88 95.71 189.41C93.51 188.41 90.52 187.06 87.23 185.5L78.78 181.5L76.22 180.31C75.8981 180.202 75.5895 180.058 75.3 179.88Z" fill="#E0E0E0"/>
<path d="M100.34 190C100.23 190 102.76 183.62 105.99 175.87C109.22 168.12 111.99 161.87 112.05 161.87C112.11 161.87 109.64 168.25 106.4 176.01C103.16 183.77 100.46 190 100.34 190Z" fill="#E0E0E0"/>
<path d="M114.26 224.55C114.439 224.245 114.65 223.96 114.89 223.7C115.37 223.09 115.98 222.34 116.7 221.45C118.22 219.55 120.32 216.91 122.53 213.92C124.74 210.93 126.65 208.17 128.02 206.15L129.64 203.76C129.823 203.458 130.034 203.173 130.27 202.91C130.15 203.244 129.985 203.56 129.78 203.85C129.44 204.45 128.93 205.29 128.28 206.32C126.98 208.39 125.11 211.2 122.88 214.19C120.65 217.18 118.53 219.8 116.94 221.65C116.14 222.57 115.49 223.31 115.02 223.81C114.798 224.087 114.543 224.335 114.26 224.55Z" fill="#E0E0E0"/>
<path d="M89.6 220.44C89.9345 220.418 90.2705 220.438 90.6 220.5L93.25 220.83C95.48 221.14 98.56 221.59 101.96 222.11C105.36 222.63 108.43 223.11 110.65 223.51L113.28 223.99C113.605 224.028 113.924 224.105 114.23 224.22C113.895 224.242 113.559 224.222 113.23 224.16L110.59 223.83C108.35 223.52 105.27 223.07 101.87 222.55C98.47 222.03 95.4 221.55 93.18 221.15L90.56 220.67C90.2324 220.629 89.9104 220.552 89.6 220.44Z" fill="#E0E0E0"/>
<path d="M98 252.55C98.4186 252.539 98.8372 252.57 99.25 252.64L102.65 253.06C105.51 253.43 109.46 253.97 113.82 254.6C118.18 255.23 122.13 255.82 124.98 256.28L128.36 256.83C128.777 256.887 129.188 256.977 129.59 257.1C129.168 257.111 128.746 257.08 128.33 257.01L124.94 256.59C122.08 256.22 118.12 255.67 113.76 255.04C109.4 254.41 105.45 253.82 102.6 253.37L99.23 252.81C98.8128 252.762 98.401 252.675 98 252.55Z" fill="#E0E0E0"/>
<path d="M128.87 256.78C129.093 256.388 129.351 256.017 129.64 255.67C130.2 254.91 130.94 253.93 131.83 252.74C133.68 250.26 136.22 246.83 138.92 242.96C141.62 239.09 143.98 235.53 145.66 232.96L147.66 229.89C147.887 229.503 148.144 229.135 148.43 228.79C148.255 229.204 148.044 229.603 147.8 229.98C147.37 230.73 146.73 231.81 145.92 233.12C144.3 235.76 141.98 239.36 139.27 243.23C136.56 247.1 133.99 250.52 132.07 252.95C131.07 254.16 130.32 255.14 129.76 255.8C129.496 256.155 129.198 256.483 128.87 256.78Z" fill="#E0E0E0"/>
<path d="M362.47 234.65C336.85 221.76 327.21 192.34 324.21 165.08C323.71 160.53 322.52 155.83 324.1 151.55C325.68 147.27 330.31 143.82 334.64 145.15C338.23 146.24 340.26 149.94 342.64 152.9C345.776 156.855 349.967 159.84 354.73 161.51C357.83 162.59 361.53 162.99 364.15 161.01C367.74 158.29 367.42 152.83 366.74 148.33C365.473 139.937 364.207 131.55 362.94 123.17C362.26 118.67 361.59 114.08 362.37 109.6C363.15 105.12 365.67 100.71 369.78 98.89C373.89 97.07 379.55 98.77 381.09 103.05C381.73 104.83 381.63 106.79 382.03 108.64C382.43 110.49 383.59 112.43 385.44 112.7C387.29 112.97 388.94 111.43 390.09 109.91C394.09 104.7 396.39 98.38 398.5 92.13C400.61 85.88 402.6 79.5 406.1 73.93C409.6 68.36 414.87 63.59 421.26 62.29C427.65 60.99 435.11 63.98 437.65 70.08C440.19 76.18 437.43 83.17 434.14 88.89C429.282 97.3859 423.219 105.133 416.14 111.89C414.86 113.1 413.48 114.41 413.14 116.16C412.6 119.3 415.87 121.87 418.98 122.43C422.5 123.06 426.09 122.19 429.66 122.09C433.23 121.99 437.26 123 439.07 126.09C441.58 130.43 438.43 135.81 435.07 139.52C428.401 146.946 420.502 153.167 411.72 157.91C408.58 159.6 405.25 161.17 402.91 163.91C400.57 166.65 399.55 170.91 401.62 173.84C403.69 176.77 407.98 177.2 411.36 176.05C414.74 174.9 417.57 172.57 420.7 170.85C426.55 167.62 434.6 166.85 439.34 171.66C442.45 174.8 443.39 179.66 442.68 184.05C441.97 188.44 439.82 192.42 437.46 196.16C429.22 209.23 417.88 220.44 404.24 227.49C390.6 234.54 377.5 237.81 362.48 234.66" fill="#22B84C"/>
<path d="M367 216.63C369.372 201.203 372.624 185.925 376.74 170.87L379.92 159C380.97 155.11 382.01 151.25 383.26 147.54C385.674 140.416 388.481 133.432 391.67 126.62C394.67 120.1 397.74 114.02 400.67 108.35C403.6 102.68 406.45 97.46 409.23 92.81C413.591 85.4502 418.53 78.4482 424 71.87C425.93 69.54 427.49 67.78 428.56 66.61L429.78 65.28C429.913 65.1204 430.06 64.9732 430.22 64.84C430.115 65.0166 429.991 65.1809 429.85 65.33L428.68 66.72C427.68 67.93 426.14 69.72 424.25 72.08C418.893 78.7084 414.04 85.728 409.73 93.08C406.98 97.74 404.18 102.97 401.28 108.64C398.38 114.31 395.33 120.4 392.36 126.91C389.193 133.719 386.402 140.696 384 147.81C382.76 151.51 381.73 155.33 380.68 159.23C379.63 163.13 378.59 167.09 377.52 171.09C373.406 186.115 370.138 201.359 367.73 216.75" fill="#E0E0E0"/>
<path d="M383.49 147.48C383.183 146.888 382.941 146.264 382.77 145.62C382.36 144.41 381.77 142.62 381.17 140.45C379.89 136.05 378.32 129.93 376.62 123.17C374.92 116.41 373.26 110.32 371.92 105.96C371.25 103.78 370.69 102.02 370.29 100.81C370.043 100.191 369.862 99.5473 369.75 98.89C370.098 99.4557 370.38 100.06 370.59 100.69C371.09 101.87 371.73 103.61 372.48 105.78C373.97 110.1 375.72 116.19 377.43 122.96L381.74 140.29C382.267 142.37 382.717 144.117 383.09 145.53C383.297 146.163 383.432 146.817 383.49 147.48Z" fill="#E0E0E0"/>
<path d="M439.82 128.29C439.084 128.564 438.324 128.768 437.55 128.9C436.09 129.25 433.96 129.74 431.36 130.43C426.14 131.77 418.99 133.87 411.21 136.53C403.43 139.19 396.49 141.94 391.53 144.05C389.04 145.05 387.05 145.99 385.67 146.6C384.973 146.962 384.243 147.257 383.49 147.48C384.118 147.025 384.788 146.63 385.49 146.3C386.83 145.6 388.79 144.62 391.25 143.5C396.17 141.24 403.1 138.42 410.9 135.73C417.554 133.422 424.323 131.46 431.18 129.85C433.81 129.23 435.96 128.85 437.45 128.58C438.229 128.407 439.022 128.31 439.82 128.29Z" fill="#E0E0E0"/>
<path d="M367.57 215.46C367.375 215.27 367.207 215.055 367.07 214.82C366.72 214.29 366.3 213.64 365.78 212.82C364.66 211.12 363.11 208.62 361.24 205.51C357.49 199.28 352.58 190.51 347.29 180.76C342 171.01 337.17 162.25 333.55 156L329.25 148.56L328.09 146.56C327.938 146.33 327.817 146.081 327.73 145.82C327.927 146.012 328.095 146.231 328.23 146.47L329.52 148.47C330.64 150.17 332.19 152.67 334.06 155.79C337.81 162.02 342.73 170.79 348.06 180.54C353.39 190.29 358.17 199.08 361.79 205.38L366.09 212.83C366.56 213.64 366.94 214.32 367.25 214.83C367.38 215.027 367.488 215.238 367.57 215.46Z" fill="#E0E0E0"/>
<path d="M440.92 179.55C440.699 179.72 440.457 179.861 440.2 179.97L438.08 181L430.23 184.86C423.6 188.13 414.49 192.74 404.44 197.86C394.39 202.98 385.22 207.5 378.52 210.63C375.17 212.19 372.45 213.43 370.52 214.25L368.33 215.17C368.082 215.3 367.816 215.392 367.54 215.44C367.763 215.273 368.005 215.132 368.26 215.02L370.38 213.95L378.24 210.09C384.87 206.83 393.97 202.22 404.03 197.09C414.09 191.96 423.24 187.45 429.94 184.32C433.29 182.76 436.01 181.52 437.94 180.7L440.13 179.78C440.38 179.663 440.646 179.586 440.92 179.55Z" fill="#E0E0E0"/>
<path d="M568.22 111.65C568.22 95.33 551.08 85 533.6 93.17C529.65 95.0226 526.417 98.1214 524.4 101.99C520.01 110.51 521.95 120.23 525.94 128.31L539.54 162.78C539.968 163.88 540.719 164.824 541.693 165.49C542.667 166.156 543.82 166.512 545 166.512C546.18 166.512 547.333 166.156 548.307 165.49C549.281 164.824 550.032 163.88 550.46 162.78L563.8 128.12C568.41 117.53 568.22 111.65 568.22 111.65ZM551.8 125.85C540.05 132.68 528.14 120.05 534.58 107.59C535.42 105.928 536.718 104.54 538.32 103.59C550.07 96.76 561.97 109.39 555.53 121.85C554.693 123.512 553.399 124.899 551.8 125.85Z" fill="#E60E0E"/>
<path d="M710 444.08C710 444.23 560 444.34 375.06 444.34C190.12 444.34 40.06 444.23 40.06 444.08C40.06 443.93 190 443.82 375.06 443.82C560.12 443.82 710 443.94 710 444.08Z" fill="#263238"/>
<path d="M324.16 444.08L191.24 443.47C183.566 443.422 176.224 440.335 170.822 434.884C165.42 429.434 162.399 422.064 162.42 414.39L163.83 81.16C163.875 73.4826 166.963 66.1363 172.416 60.7319C177.869 55.3275 185.243 52.306 192.92 52.33L325.84 52.94C333.51 52.9876 340.85 56.0722 346.251 61.5186C351.652 66.9649 354.676 74.3294 354.66 82L353.25 415.23C353.21 422.911 350.125 430.262 344.671 435.671C339.218 441.08 331.841 444.104 324.16 444.08Z" fill="#455A64"/>
<path d="M325.65 64.44L299.88 64.32C298.183 64.3516 296.569 65.0546 295.389 66.2749C294.21 67.4952 293.563 69.1333 293.59 70.83V75.51C293.603 76.35 293.451 77.1844 293.141 77.9654C292.832 78.7463 292.371 79.4586 291.786 80.0614C291.201 80.6642 290.502 81.1457 289.731 81.4784C288.959 81.811 288.13 81.9883 287.29 82L237.05 81.77C235.354 81.7203 233.747 81.0013 232.58 79.7702C231.412 78.5392 230.78 76.8961 230.82 75.2V70.52C230.85 68.8351 230.215 67.2063 229.053 65.9861C227.89 64.7658 226.294 64.0523 224.61 64H215.55L193 63.83C187.623 63.8034 182.456 65.9132 178.634 69.6956C174.812 73.4779 172.649 78.6231 172.62 84L171.25 409.26C171.226 414.637 173.338 419.803 177.123 423.623C180.907 427.443 186.053 429.604 191.43 429.63L324.09 430.24C326.753 430.252 329.393 429.739 331.858 428.731C334.323 427.723 336.565 426.239 338.457 424.364C340.348 422.489 341.852 420.26 342.882 417.804C343.912 415.348 344.448 412.713 344.46 410.05L345.83 84.8C345.842 82.1381 345.329 79.4999 344.322 77.0361C343.314 74.5723 341.831 72.3311 339.957 70.4405C338.083 68.5499 335.855 67.0469 333.4 66.0174C330.945 64.9878 328.312 64.4518 325.65 64.44Z" fill="#FAFAFA"/>
<path d="M172.46 123.05H194.2L213.6 142.46L193.43 162.63L172.69 141.88L172.46 123.05Z" fill="#E3E0E0"/>
<path d="M218.03 133.94L207.13 123.05H231.65L218.03 133.94Z" fill="#EBEBEB"/>
<path d="M227.56 142.84L246.65 123.75H313.35C313.35 123.75 323.56 169.35 283.35 198.63L227.56 142.84Z" fill="#E3E0E0"/>
<path d="M219.39 148.92L198.97 169.35L255.48 225.86L275.9 204.75L219.39 148.92Z" fill="#E3E0E0"/>
<path d="M172.21 180.93L185.01 167.65L172.46 155.1L172.21 180.93Z" fill="#E3E0E0"/>
<path d="M192.67 175.48L173.01 195.14V222.46L213.6 263.99L247.99 231.99L192.67 175.48Z" fill="#E3E0E0"/>
<path d="M291 204.36C291 204.36 333.12 173.48 319.5 123.75H345.69L345.37 264.11L291 204.36Z" fill="#E3E0E0"/>
<path d="M283.08 212.46L262.72 233.72L325.16 296.17L344.26 275.93L283.08 212.46Z" fill="#E3E0E0"/>
<path d="M254.21 239.54L222.2 271.32L286.22 334.89L318.17 304L254.21 239.54Z" fill="#EBEBEB"/>
<path d="M237.43 398.77L286.37 348.05L332.92 395.5L237.43 398.77Z" fill="#EBEBEB"/>
<path d="M294 341.5L345 291C345 293.24 344.56 395.71 344.56 395.71L294 341.5Z" fill="#EBEBEB"/>
<path d="M250.37 313.14L279.28 342.05L222.2 400.95L195.83 369.32L250.37 313.14Z" fill="#EBEBEB"/>
<path d="M172.26 373.42C174.99 373.15 244.9 307.68 244.9 307.68L172.26 232.41V373.42Z" fill="#E3E0E0"/>
<path d="M171.25 388.34L188.08 373.42L211.39 400.95H171.25V390.42" fill="#EBEBEB"/>
<path d="M193 103.23C191.221 101.918 189.549 100.466 188 98.89C188 98.13 188 98.68 188 98.51L188.07 98.45L188.19 98.34L188.44 98.11L188.92 97.66L189.83 96.82L191.4 95.42C191.875 94.9342 192.414 94.5138 193 94.17C192.643 94.7138 192.212 95.2052 191.72 95.63L190.22 97.11L189.33 97.97L188.85 98.43L188.61 98.66L188.48 98.77L188.42 98.83V98.45C190.069 99.9217 191.6 101.52 193 103.23Z" fill="#263238"/>
<path d="M331.25 95.6C331.252 95.8164 331.189 96.0285 331.07 96.2093C330.951 96.3901 330.781 96.5313 330.582 96.6151C330.382 96.6988 330.162 96.7212 329.95 96.6795C329.737 96.6378 329.542 96.5337 329.389 96.3807C329.236 96.2277 329.132 96.0325 329.091 95.8202C329.049 95.6078 329.071 95.3878 329.155 95.1882C329.239 94.9887 329.38 94.8185 329.561 94.6995C329.741 94.5805 329.954 94.518 330.17 94.52C330.456 94.52 330.731 94.6338 330.934 94.8363C331.136 95.0389 331.25 95.3136 331.25 95.6Z" fill="#263238"/>
<path d="M330.94 98.57C331.093 98.7224 331.197 98.9166 331.239 99.1281C331.281 99.3396 331.26 99.5588 331.177 99.7581C331.095 99.9574 330.955 100.128 330.776 100.248C330.597 100.368 330.386 100.431 330.17 100.431C329.954 100.431 329.744 100.368 329.564 100.248C329.385 100.128 329.245 99.9574 329.163 99.7581C329.08 99.5588 329.059 99.3396 329.101 99.1281C329.143 98.9166 329.247 98.7224 329.4 98.57C329.606 98.3685 329.882 98.2556 330.17 98.2556C330.458 98.2556 330.734 98.3685 330.94 98.57Z" fill="#263238"/>
<path d="M331.25 103.07C331.224 103.34 331.099 103.59 330.898 103.772C330.697 103.955 330.436 104.056 330.165 104.056C329.894 104.056 329.633 103.955 329.432 103.772C329.231 103.59 329.106 103.34 329.08 103.07C329.065 102.919 329.083 102.766 329.131 102.622C329.179 102.478 329.256 102.345 329.358 102.233C329.46 102.12 329.585 102.03 329.724 101.969C329.863 101.907 330.013 101.876 330.165 101.876C330.317 101.876 330.467 101.907 330.606 101.969C330.745 102.03 330.87 102.12 330.972 102.233C331.074 102.345 331.151 102.478 331.199 102.622C331.247 102.766 331.265 102.919 331.25 103.07Z" fill="#263238"/>
<path d="M284.39 100.03H237.61V103.93H284.39V100.03Z" fill="#263238"/>
<path d="M279.3 170C279.3 151.78 260.16 140.24 240.64 149.37C236.223 151.433 232.61 154.895 230.36 159.22C225.45 168.73 227.62 179.59 232.07 188.61L247.27 227.12C247.75 228.347 248.589 229.401 249.677 230.144C250.765 230.887 252.052 231.284 253.37 231.284C254.688 231.284 255.975 230.887 257.063 230.144C258.151 229.401 258.99 228.347 259.47 227.12L274.36 188.41C279.52 176.61 279.3 170 279.3 170ZM261 185.9C247.88 193.53 234.58 179.43 241.77 165.51C242.717 163.674 244.163 162.143 245.94 161.09C259.07 153.46 272.37 167.56 265.17 181.48C264.227 183.319 262.781 184.851 261 185.9Z" fill="#FF4E27"/>
<path d="M677.07 309.12H122.25V390.53H677.07V309.12Z" fill="#FFC727"/>
<g opacity="0.5">
<path d="M677.07 309.12H122.25V390.53H677.07V309.12Z" fill="black"/>
</g>
<path d="M200.403 443.355C229.884 441.371 252.174 415.864 250.19 386.384C248.206 356.903 222.699 334.613 193.219 336.597C163.738 338.581 141.448 364.088 143.432 393.568C145.416 423.049 170.923 445.339 200.403 443.355Z" fill="#263238"/>
<path d="M143.32 389.07C143.32 389.12 143.32 389.17 143.32 389.21C143.218 396.236 144.501 403.213 147.096 409.743C149.69 416.272 153.546 422.227 158.442 427.267C163.338 432.307 169.178 436.333 175.63 439.116C182.082 441.899 189.019 443.383 196.045 443.485C203.071 443.587 210.048 442.304 216.578 439.709C223.107 437.115 229.062 433.259 234.102 428.363C239.142 423.467 243.168 417.627 245.951 411.175C248.734 404.723 250.218 397.786 250.32 390.76C250.32 390.71 250.32 390.66 250.32 390.62L143.32 389.07Z" fill="#263238"/>
<path d="M159.25 389.44C159.14 396.869 161.236 404.163 165.272 410.401C169.308 416.639 175.103 421.539 181.925 424.483C188.747 427.426 196.288 428.28 203.595 426.937C210.902 425.594 217.647 422.115 222.977 416.938C228.306 411.761 231.98 405.12 233.534 397.855C235.089 390.59 234.454 383.027 231.71 376.123C228.965 369.218 224.235 363.283 218.117 359.068C211.999 354.852 204.769 352.546 197.34 352.44C187.383 352.298 177.778 356.116 170.635 363.055C163.493 369.993 159.397 379.483 159.25 389.44Z" fill="#FAFAFA"/>
<path d="M197.34 352.43C187.383 352.286 177.776 356.103 170.632 363.042C163.489 369.98 159.395 379.473 159.25 389.43L234.36 390.52C234.502 380.56 230.681 370.951 223.738 363.808C216.796 356.665 207.3 352.572 197.34 352.43Z" fill="#E0E0E0"/>
<path d="M173.93 389.65C173.863 394.175 175.14 398.619 177.599 402.419C180.058 406.218 183.588 409.203 187.744 410.996C191.9 412.789 196.494 413.309 200.945 412.491C205.396 411.672 209.505 409.552 212.751 406.398C215.997 403.244 218.235 399.199 219.182 394.773C220.128 390.347 219.741 385.74 218.069 381.534C216.396 377.329 213.514 373.713 209.787 371.146C206.06 368.578 201.655 367.174 197.13 367.11C194.127 367.066 191.144 367.615 188.353 368.724C185.561 369.833 183.016 371.481 180.861 373.574C178.707 375.667 176.986 378.164 175.797 380.923C174.607 383.681 173.973 386.647 173.93 389.65Z" fill="#263238"/>
<path d="M609.026 443.337C638.524 441.625 661.049 416.326 659.338 386.828C657.627 357.33 632.327 334.805 602.83 336.516C573.332 338.227 550.806 363.527 552.518 393.025C554.229 422.522 579.529 445.048 609.026 443.337Z" fill="#263238"/>
<path d="M552.42 389.07C552.42 389.12 552.42 389.17 552.42 389.21C552.318 396.236 553.601 403.213 556.196 409.743C558.79 416.272 562.646 422.227 567.542 427.267C572.438 432.307 578.278 436.333 584.73 439.116C591.182 441.899 598.119 443.383 605.145 443.485C612.171 443.587 619.148 442.304 625.677 439.709C632.207 437.115 638.162 433.259 643.202 428.363C648.242 423.467 652.268 417.627 655.051 411.175C657.834 404.723 659.318 397.786 659.42 390.76C659.42 390.71 659.42 390.66 659.42 390.62L552.42 389.07Z" fill="#263238"/>
<path d="M568.35 389.44C568.24 396.869 570.336 404.163 574.372 410.401C578.408 416.639 584.203 421.539 591.025 424.483C597.847 427.426 605.388 428.28 612.695 426.937C620.002 425.594 626.747 422.115 632.077 416.938C637.406 411.761 641.08 405.12 642.634 397.855C644.189 390.59 643.554 383.027 640.81 376.123C638.065 369.218 633.335 363.283 627.217 359.068C621.099 354.852 613.869 352.546 606.44 352.44C596.483 352.298 586.878 356.116 579.735 363.055C572.593 369.993 568.497 379.483 568.35 389.44Z" fill="#FAFAFA"/>
<path d="M606.44 352.43C596.483 352.286 586.876 356.103 579.732 363.042C572.589 369.98 568.495 379.473 568.35 389.43L643.46 390.52C643.602 380.56 639.781 370.951 632.838 363.808C625.896 356.665 616.4 352.572 606.44 352.43Z" fill="#E0E0E0"/>
<path d="M583 389.65C582.933 394.175 584.21 398.619 586.669 402.419C589.128 406.218 592.659 409.203 596.814 410.996C600.97 412.789 605.564 413.309 610.015 412.491C614.466 411.672 618.575 409.552 621.821 406.398C625.067 403.244 627.305 399.199 628.252 394.773C629.198 390.347 628.811 385.74 627.139 381.534C625.466 377.329 622.585 373.713 618.857 371.146C615.13 368.578 610.726 367.174 606.2 367.11C603.197 367.066 600.214 367.615 597.423 368.724C594.631 369.833 592.086 371.481 589.931 373.574C587.777 375.667 586.056 378.164 584.867 380.923C583.677 383.681 583.043 386.647 583 389.65Z" fill="#263238"/>
<path d="M266.93 263.32C266.93 263.32 188.15 269.13 158.93 275.68C138.35 280.29 98.67 288.26 99.15 313.22L102.3 331.12C102.3 331.12 87.59 337.84 87.59 355C87.59 372.16 84 398.76 118.36 399.83C124.02 400 134.77 399.83 134.77 399.83C134.77 399.83 128.18 326.65 195.4 324.51C263.79 322.33 259.25 399.16 259.25 399.16H544.68C544.68 399.16 532.96 324.31 606.58 324.16C680.2 324.01 669 399.65 669 399.65C669 399.65 696.08 401.99 708.68 379.23C721.28 356.47 718.01 340.23 718.01 340.23L717.59 325.84C717.51 323.478 716.536 321.235 714.866 319.564C713.195 317.894 710.952 316.92 708.59 316.84C708.59 316.84 713.51 280.62 705.96 274.35C698.41 268.08 657.04 230.25 657.04 230.25L659.04 229.02C659.781 228.551 660.375 227.882 660.751 227.09C661.128 226.298 661.272 225.415 661.168 224.544C661.063 223.673 660.714 222.85 660.16 222.17C659.606 221.489 658.871 220.98 658.04 220.7C642.33 215.3 611.27 204.61 603.97 202.06C602.877 201.671 601.737 201.429 600.58 201.34C596.22 201.01 583.88 200.23 561.23 199.99C533.64 199.69 424.1 199.99 424.1 199.99C424.1 199.99 386.4 203.09 365.4 212.33C343.38 222.05 266.93 263.32 266.93 263.32Z" fill="#FFC727"/>
<g opacity="0.4">
<path d="M107.57 353C104.71 352.42 100.33 352.37 98.15 354.3C96.53 355.74 96.1 358.07 95.86 360.22C95.4007 363.165 95.4684 366.169 96.06 369.09C96.3616 370.549 96.9615 371.93 97.8219 373.147C98.6823 374.364 99.7846 375.389 101.06 376.16C103.68 377.58 107.26 377.35 109.29 375.16C111.15 373.16 111.36 370.16 111.29 367.49C111.22 363.63 111.53 360.36 110.82 356.57C110.663 355.766 110.321 355.009 109.82 354.36C109.571 353.972 109.236 353.646 108.84 353.409C108.445 353.171 108 353.028 107.54 352.99" fill="black"/>
</g>
<path d="M102.32 331.12C110.68 331.12 118.79 330.66 127.14 330.12C128.05 330.16 128.946 329.888 129.68 329.35C130.016 328.932 130.266 328.452 130.415 327.937C130.564 327.422 130.61 326.883 130.55 326.35C130.55 321.87 130.37 316.77 126.97 313.85C124.89 312.07 122.04 311.51 119.31 311.26C112.531 310.528 105.673 311.209 99.17 313.26L102.32 331.12Z" fill="#FAFAFA"/>
<path d="M276 396.87C276 396.87 276 396.63 275.94 396.15C275.88 395.67 275.86 394.96 275.8 394.05C275.7 392.19 275.55 389.48 275.36 385.98C275.17 382.48 274.93 378.19 274.43 373.23C273.914 367.614 272.927 362.051 271.48 356.6C269.655 350.016 266.947 343.708 263.43 337.85C259.447 331.085 254.153 325.183 247.86 320.49C234.37 310.89 216.14 305.49 197.07 305.23C178 304.97 159.76 311 146.6 321.11C140.292 325.777 134.766 331.417 130.23 337.82C126.269 343.379 123.049 349.43 120.65 355.82C118.671 361.102 117.312 366.595 116.6 372.19C116.042 376.409 115.878 380.671 116.11 384.92C116.274 387.605 116.608 390.277 117.11 392.92C117.27 393.81 117.4 394.5 117.48 394.98C117.56 395.46 117.59 395.69 117.59 395.69C117.59 395.69 117.53 395.46 117.43 395L117 393C116.456 390.361 116.095 387.688 115.92 385C115.648 380.737 115.782 376.458 116.32 372.22C117.009 366.597 118.352 361.073 120.32 355.76C122.711 349.319 125.931 343.218 129.9 337.61C134.447 331.156 139.997 325.47 146.34 320.77C159.56 310.61 177.84 304.52 197.06 304.77C216.28 305.02 234.54 310.47 248.14 320.16C254.471 324.9 259.792 330.856 263.79 337.68C267.303 343.583 269.995 349.939 271.79 356.57C273.229 362.044 274.196 367.631 274.68 373.27C275.15 378.27 275.36 382.53 275.52 386.03C275.68 389.53 275.79 392.25 275.87 394.11C275.87 395.02 275.93 395.72 275.95 396.21C275.97 396.7 276 396.87 276 396.87Z" fill="white"/>
<path d="M279 398.11V397.51L278.94 395.74C278.89 394.16 278.82 391.85 278.72 388.83C278.55 382.76 278.3 373.89 277.98 362.6C277.66 351.31 277.29 337.6 276.86 321.9C276.75 317.97 276.65 313.9 276.53 309.75C276.46 307.629 276.553 305.506 276.81 303.4L277.26 300.18L277.92 296.95C278.955 292.537 280.447 288.244 282.37 284.14C284.35 279.838 286.798 275.766 289.67 272L339.1 240.86L352.45 232.46C356.95 229.47 361.674 226.832 366.58 224.57C371.597 222.207 376.746 220.134 382 218.36C384.62 217.44 387.31 216.69 390 215.89C392.69 215.09 395.43 214.43 398.21 213.89C408.693 211.647 419.348 210.309 430.06 209.89C440.338 209.397 450.635 209.431 460.91 209.99H461.2L461.13 210.28L447.85 269.69C445.397 273.719 443.385 278 441.85 282.46C440.339 286.69 439.66 291.172 439.85 295.66C440.19 300.05 440.31 304.35 440.42 308.52C440.53 312.69 440.58 316.73 440.66 320.66C440.89 336.36 440.95 350.05 440.99 361.33C441.03 372.61 440.99 381.48 440.99 387.54C440.99 390.54 440.99 392.87 440.99 394.45C440.99 395.22 440.99 395.81 440.99 396.22C440.99 396.63 440.99 396.82 440.99 396.82C440.99 396.82 440.99 396.61 440.99 396.22C440.99 395.83 440.99 395.22 440.99 394.45C440.99 392.87 440.99 390.56 440.99 387.54C440.99 381.48 440.9 372.61 440.83 361.34C440.76 350.07 440.66 336.34 440.39 320.66C440.31 316.74 440.223 312.697 440.13 308.53C440.01 304.36 439.89 300.08 439.54 295.69C439.337 291.146 440.016 286.606 441.54 282.32C443.065 277.824 445.077 273.508 447.54 269.45V269.52C451.61 251.23 456.06 231.27 460.77 210.1L461 210.4C450.748 209.848 440.475 209.821 430.22 210.32C419.534 210.734 408.905 212.072 398.45 214.32C395.68 214.87 392.98 215.64 390.27 216.32C387.56 217 384.91 217.87 382.27 218.78C377.015 220.557 371.867 222.633 366.85 225C361.968 227.247 357.268 229.868 352.79 232.84L339.43 241.24L290 272.31V272.26C287.134 276.001 284.692 280.049 282.72 284.33C280.799 288.403 279.311 292.666 278.28 297.05C276.03 305.62 277.16 314.05 277.18 321.9L278.18 362.6C278.45 373.88 278.66 382.76 278.8 388.82C278.87 391.82 278.91 394.16 278.95 395.74C278.95 396.507 278.95 397.097 278.95 397.51C279 397.91 279 398.11 279 398.11Z" fill="#263238"/>
<path d="M460.55 211.64H461.02L462.39 211.59L467.7 211.46L487.39 211.08L553.77 209.94H553.9L553.98 210.04L563.28 221.43C572.7 233 581.68 244 589.84 254L592.84 257.7C593.811 258.94 594.646 260.281 595.33 261.7C596.569 264.331 597.242 267.193 597.306 270.101C597.369 273.008 596.822 275.897 595.7 278.58L592.7 285.58L583.52 306.82L581 312.58L580.33 314.08C580.18 314.41 580.09 314.58 580.09 314.58C580.09 314.58 580.15 314.4 580.28 314.06C580.41 313.72 580.64 313.19 580.9 312.54C581.47 311.2 582.28 309.24 583.33 306.74L592.33 285.44C594.05 280.92 597.08 276.16 596.87 270.36C596.825 267.412 596.143 264.509 594.87 261.85C594.2 260.469 593.381 259.165 592.43 257.96L589.43 254.26L562.84 221.72L553.55 210.33L553.75 210.43L487.36 211.43L467.67 211.66H462.36H461L460.55 211.64Z" fill="#263238"/>
<path d="M427 299.92C427 299.92 427.28 299.92 427.79 299.8C428.54 299.667 429.255 299.381 429.89 298.96C430.898 298.303 431.652 297.322 432.03 296.18C432.259 295.47 432.354 294.724 432.31 293.98C432.286 293.15 432.074 292.336 431.69 291.6C431.243 290.762 430.58 290.06 429.769 289.565C428.958 289.071 428.029 288.803 427.08 288.79H420.34H404.89C403.585 288.792 402.329 289.285 401.37 290.17C400.434 291.022 399.838 292.183 399.69 293.44C399.538 294.654 399.762 295.886 400.33 296.97C400.91 297.988 401.81 298.786 402.89 299.24C403.959 299.607 405.094 299.746 406.22 299.65H409.49H415.37L423.88 299.73L426.19 299.78C426.461 299.774 426.733 299.794 427 299.84C426.731 299.872 426.461 299.888 426.19 299.89H423.88L415.37 299.97H409.49H406.22C405.65 299.97 405.1 299.97 404.49 299.97C403.878 299.933 403.277 299.794 402.71 299.56C401.524 299.073 400.535 298.204 399.9 297.09C399.265 295.92 399.017 294.58 399.19 293.26C399.347 291.857 400.015 290.561 401.066 289.619C402.117 288.676 403.478 288.153 404.89 288.15H420.34H427.09C428.11 288.171 429.106 288.468 429.972 289.008C430.838 289.549 431.542 290.313 432.01 291.22C432.41 292.008 432.626 292.876 432.64 293.76C432.672 294.54 432.561 295.32 432.31 296.06C431.887 297.248 431.073 298.257 430 298.92C429.338 299.341 428.589 299.604 427.81 299.69C427.55 299.799 427.278 299.876 427 299.92Z" fill="#263238"/>
<path d="M575 299.92C575 299.92 575.28 299.92 575.79 299.8C576.54 299.667 577.255 299.381 577.89 298.96C578.898 298.303 579.652 297.322 580.03 296.18C580.259 295.47 580.354 294.724 580.31 293.98C580.286 293.15 580.074 292.336 579.69 291.6C579.243 290.762 578.58 290.06 577.769 289.565C576.958 289.071 576.029 288.803 575.08 288.79H568.34H552.89C551.585 288.792 550.329 289.285 549.37 290.17C548.434 291.022 547.838 292.183 547.69 293.44C547.538 294.654 547.762 295.886 548.33 296.97C548.91 297.988 549.81 298.786 550.89 299.24C551.959 299.607 553.094 299.746 554.22 299.65H557.49H563.37L571.88 299.73L574.19 299.78C574.461 299.774 574.733 299.794 575 299.84C574.731 299.872 574.461 299.888 574.19 299.89H571.88L563.37 299.97H557.49H554.22C553.65 299.97 553.1 299.97 552.49 299.97C551.878 299.933 551.277 299.794 550.71 299.56C549.524 299.073 548.535 298.204 547.9 297.09C547.265 295.92 547.017 294.58 547.19 293.26C547.347 291.857 548.015 290.561 549.066 289.619C550.117 288.676 551.478 288.153 552.89 288.15H568.34H575.09C576.111 288.171 577.106 288.468 577.972 289.008C578.838 289.549 579.542 290.313 580.01 291.22C580.41 292.008 580.626 292.876 580.64 293.76C580.672 294.54 580.561 295.32 580.31 296.06C579.887 297.248 579.073 298.257 578 298.92C577.338 299.341 576.589 299.604 575.81 299.69C575.55 299.799 575.278 299.876 575 299.92Z" fill="#263238"/>
<path d="M704.69 275.78H675.09C673.1 275.779 671.148 276.322 669.444 277.35C667.74 278.377 666.348 279.85 665.42 281.61C664.657 283.066 664.232 284.676 664.177 286.318C664.121 287.961 664.437 289.596 665.1 291.1L676.7 317.47L706.34 317.18C706.34 317.18 712.65 283.75 704.69 275.78Z" fill="#FAFAFA"/>
<path d="M293.6 272.05L446.33 269.23L545.73 267.41L578.51 248.48C579.133 248.117 579.672 247.626 580.091 247.039C580.51 246.452 580.8 245.783 580.941 245.076C581.081 244.369 581.07 243.639 580.908 242.937C580.746 242.234 580.437 241.574 580 241L559.59 214.19C558.541 212.81 557.19 211.688 555.64 210.911C554.091 210.135 552.383 209.724 550.65 209.71L439.47 208.81C439.47 208.81 397.61 206.37 364.62 224.81C329.93 244.28 293.6 272.05 293.6 272.05Z" fill="#263238"/>
<path d="M363.59 211.58C363.59 211.58 371.25 215.07 366.27 218.3C361.29 221.53 283.91 270.3 283.91 270.3L266.12 262.25C297.63 244.72 329.45 227.67 363.59 211.58Z" fill="#455A64"/>
<path d="M286.41 271.54L285.93 271.66L284.52 271.97L279.09 273.09C274.37 274.03 267.53 275.35 259.09 276.81C242.09 279.73 218.57 283.13 192.4 285.39C185.85 285.96 179.4 286.39 173.28 286.83C167.16 287.27 161.14 287.62 155.48 288.13C144.15 289.13 134.01 290.77 125.77 293.22C119.221 295.041 112.917 297.654 107 301C104.87 302.12 103.35 303.22 102.28 303.88L101.06 304.65L100.63 304.9C100.758 304.797 100.892 304.7 101.03 304.61L102.22 303.79C103.28 303.1 104.78 301.97 106.9 300.79C112.782 297.352 119.07 294.665 125.62 292.79C133.88 290.28 144.05 288.59 155.39 287.58C161.06 287.04 167.02 286.66 173.2 286.25C179.38 285.84 185.77 285.36 192.31 284.79C218.47 282.53 242.02 279.19 258.99 276.36C267.48 274.95 274.32 273.69 279.05 272.81L284.5 271.81L285.92 271.55L286.41 271.54Z" fill="#263238"/>
<path d="M716.52 339.93C716.52 340.08 706.34 340.19 693.79 340.19C681.24 340.19 671.05 340.08 671.05 339.93C671.05 339.78 681.23 339.67 693.79 339.67C706.35 339.67 716.52 339.79 716.52 339.93Z" fill="#263238"/>
<path d="M530.29 365.91C530.29 366.06 472.83 366.17 401.96 366.17C331.09 366.17 273.62 366.06 273.62 365.91C273.62 365.76 331.07 365.65 401.96 365.65C472.85 365.65 530.29 365.77 530.29 365.91Z" fill="#263238"/>
<path d="M128 340.79C128 340.94 119.87 341.05 109.85 341.05C99.83 341.05 91.7 340.94 91.7 340.79C91.7 340.64 99.83 340.53 109.85 340.53C119.87 340.53 128 340.65 128 340.79Z" fill="#263238"/>
<path d="M656.27 229.21C656.27 229.21 649.45 236.84 652.13 242.44C654.81 248.04 682.52 267.66 682.52 267.66L702.63 271.43L656.27 229.21Z" fill="#455A64"/>
<path d="M465.07 215.54L460.55 264.38L541.47 262.07L574.08 243.11L552.97 215.54H465.07Z" fill="#455A64"/>
<path d="M312.76 266.88C312.76 266.88 361.58 231.62 380.84 224.61C399.43 217.85 409.12 216.15 426.58 215.61C443.27 215.13 453.44 215.61 453.44 215.61L440.54 265.26L312.76 266.88Z" fill="#455A64"/>
<path d="M305.62 267C305.621 265.482 306.025 263.991 306.791 262.68C307.557 261.37 308.658 260.286 309.98 259.54L321.2 253.24C324.396 251.441 328.002 250.497 331.67 250.5C333.929 250.503 336.173 250.861 338.32 251.56C340.658 252.369 342.693 253.871 344.155 255.867C345.616 257.863 346.435 260.257 346.5 262.73C346.563 264.391 346.291 266.048 345.698 267.601C345.106 269.154 344.206 270.571 343.053 271.768C341.9 272.965 340.517 273.917 338.987 274.567C337.457 275.217 335.812 275.551 334.15 275.55H314.15C311.886 275.545 309.716 274.642 308.117 273.039C306.518 271.436 305.62 269.264 305.62 267Z" fill="#FFC727"/>
<path d="M305.62 267C305.62 267 305.62 267.38 305.75 268.08C305.901 269.11 306.24 270.103 306.75 271.01C307.558 272.439 308.75 273.613 310.19 274.4C311.088 274.87 312.064 275.175 313.07 275.3C314.218 275.385 315.37 275.408 316.52 275.37L333.63 275.31C335.252 275.353 336.867 275.089 338.39 274.53C339.997 273.929 341.459 272.994 342.679 271.788C343.9 270.581 344.851 269.13 345.47 267.53C346.1 265.842 346.356 264.037 346.22 262.24C346.086 260.469 345.564 258.749 344.691 257.203C343.819 255.656 342.617 254.32 341.17 253.29C339.774 252.325 338.2 251.645 336.54 251.29C331.98 250.212 327.191 250.672 322.92 252.6C321.63 253.18 320.45 253.91 319.28 254.54L315.94 256.4L310.19 259.58C308.743 260.359 307.55 261.535 306.75 262.97C306.246 263.88 305.907 264.872 305.75 265.9C305.65 266.6 305.66 266.98 305.63 266.98C305.593 266.614 305.593 266.246 305.63 265.88C305.742 264.83 306.055 263.812 306.55 262.88C307.336 261.386 308.542 260.156 310.02 259.34L315.73 256.09L319.05 254.2C320.21 253.56 321.39 252.82 322.71 252.2C327.061 250.197 331.957 249.704 336.62 250.8C338.34 251.142 339.975 251.822 341.43 252.8C342.942 253.871 344.199 255.263 345.112 256.875C346.024 258.488 346.57 260.282 346.71 262.13C346.856 264.005 346.59 265.889 345.93 267.65C345.285 269.322 344.291 270.837 343.015 272.096C341.739 273.354 340.21 274.327 338.53 274.95C336.95 275.519 335.278 275.787 333.6 275.74L316.49 275.69C315.326 275.715 314.161 275.678 313 275.58C311.947 275.434 310.93 275.095 310 274.58C308.526 273.756 307.319 272.527 306.52 271.04C306.031 270.106 305.723 269.088 305.61 268.04C305.586 267.694 305.589 267.346 305.62 267Z" fill="#263238"/>
<path d="M681.74 397.32C681.74 397.32 681.74 397.09 681.74 396.63C681.74 396.17 681.82 395.48 681.88 394.63C681.94 393.78 682.04 392.63 682.1 391.33C682.16 390.03 682.2 388.51 682.25 386.82C682.3 385.13 682.25 383.23 682.25 381.17C682.25 379.11 682.1 376.86 681.82 374.46C681.366 369.021 680.398 363.637 678.93 358.38C678.065 355.313 677 352.307 675.74 349.38C674.402 346.218 672.79 343.18 670.92 340.3C666.753 333.952 661.451 328.426 655.28 324C648.488 319.069 640.906 315.328 632.86 312.94C624.52 310.39 615.44 309.46 606.2 309.39C597.187 309.308 588.216 310.613 579.6 313.26C575.521 314.549 571.56 316.185 567.76 318.15C564.137 320.075 560.697 322.324 557.48 324.87C551.5 329.554 546.173 335.015 541.64 341.11C539.647 343.907 537.887 346.864 536.38 349.95C535.005 352.811 533.79 355.745 532.74 358.74C529.545 367.766 527.6 377.187 526.96 386.74C526.8 390.13 526.82 392.74 526.91 394.56C526.96 395.44 527 396.11 527.02 396.56C527.04 397.01 527.02 397.25 527.02 397.25C527.02 397.25 527.02 397.02 526.94 396.56C526.86 396.1 526.84 395.41 526.77 394.56C526.638 391.952 526.638 389.338 526.77 386.73C527.323 377.123 529.218 367.641 532.4 358.56C533.45 355.552 534.659 352.601 536.02 349.72C537.54 346.611 539.306 343.628 541.3 340.8C545.848 334.666 551.191 329.164 557.19 324.44C560.426 321.874 563.887 319.605 567.53 317.66C571.355 315.679 575.343 314.03 579.45 312.73C588.114 310.052 597.142 308.733 606.21 308.82C615.49 308.89 624.61 309.82 633.02 312.4C641.12 314.811 648.749 318.585 655.58 323.56C658.744 325.889 661.701 328.485 664.42 331.32C667.003 333.98 669.305 336.899 671.29 340.03C673.165 342.936 674.782 346.001 676.12 349.19C677.377 352.116 678.436 355.122 679.29 358.19C680.749 363.473 681.697 368.885 682.12 374.35C682.39 376.75 682.39 379 682.5 381.07C682.61 383.14 682.5 385.07 682.5 386.73C682.5 388.39 682.35 389.94 682.29 391.25C682.23 392.56 682.1 393.65 682.02 394.55C681.94 395.45 681.88 396.1 681.84 396.55C681.8 397 681.74 397.32 681.74 397.32Z" fill="white"/>
<path d="M438.17 272.05H437.49L434.88 272.11L425.29 272.28C417.19 272.43 406.01 272.73 393.65 273.07C381.29 273.41 370.1 273.64 362 273.7C357.95 273.7 354.67 273.7 352.4 273.7H349.79H349.12C349.041 273.715 348.959 273.715 348.88 273.7C348.959 273.687 349.041 273.687 349.12 273.7H349.79L352.4 273.64L361.99 273.47C370.09 273.32 381.28 273.02 393.64 272.69C406 272.36 417.19 272.11 425.29 272.05C429.29 272.05 432.62 272.05 434.88 272.05H437.49H438.17Z" fill="white"/>
<path d="M425.14 287.08C422.228 287.344 419.303 287.43 416.38 287.34C413.457 287.43 410.532 287.344 407.62 287.08C410.532 286.822 413.457 286.736 416.38 286.82C419.303 286.736 422.228 286.822 425.14 287.08Z" fill="white"/>
<path d="M428.36 233.57C428.41 233.7 417.54 238.23 404.07 243.68C390.6 249.13 379.64 253.45 379.58 253.31C379.52 253.17 390.4 248.65 403.87 243.2C417.34 237.75 428.3 233.44 428.36 233.57Z" fill="white"/>
<path d="M406.32 237C406.38 237.14 396.02 241.7 383.19 247.19C370.36 252.68 359.92 257.03 359.86 256.9C359.8 256.77 370.16 252.21 382.99 246.71C395.82 241.21 406.26 236.85 406.32 237Z" fill="white"/>
<path d="M546.08 231.68C546.14 231.81 535.26 236.34 521.79 241.79C508.32 247.24 497.36 251.55 497.3 251.42C497.24 251.29 508.12 246.76 521.6 241.31C535.08 235.86 546 231.54 546.08 231.68Z" fill="white"/>
<path d="M524 235.09C524.06 235.23 513.7 239.79 500.88 245.28C488.06 250.77 477.6 255.12 477.54 254.99C477.48 254.86 487.84 250.3 500.67 244.8C513.5 239.3 524 235 524 235.09Z" fill="white"/>
<path d="M548.21 272C548.21 272.14 526.58 272.39 499.9 272.55C473.22 272.71 451.59 272.72 451.59 272.55C451.59 272.38 473.21 272.16 499.9 272.01C526.59 271.86 548.21 271.89 548.21 272Z" fill="white"/>
<path d="M572.16 286.25C572.16 286.39 566.1 286.56 558.61 286.63C551.12 286.7 545.06 286.63 545.06 286.5C545.06 286.37 551.12 286.18 558.61 286.11C566.1 286.04 572.16 286.1 572.16 286.25Z" fill="white"/>
<path d="M158 278.85C157.809 278.915 157.611 278.955 157.41 278.97L155.72 279.19C154.98 279.27 154.08 279.38 153.04 279.56C152 279.74 150.81 279.87 149.51 280.13C146.9 280.59 143.81 281.27 140.43 282.13C136.769 283.14 133.161 284.335 129.62 285.71C125.86 287.2 122.37 288.83 119.25 290.44C116.13 292.05 113.43 293.67 111.25 295.12C110.12 295.81 109.14 296.51 108.25 297.12C107.36 297.73 106.63 298.23 106.03 298.67L104.64 299.67C104.481 299.793 104.31 299.9 104.13 299.99C104.263 299.842 104.41 299.708 104.57 299.59L105.91 298.52C106.49 298.06 107.21 297.52 108.08 296.89C108.95 296.26 109.9 295.56 111.08 294.89C113.28 293.4 116 291.77 119.08 290.1C125.823 286.495 132.965 283.693 140.36 281.75C143.76 280.87 146.87 280.22 149.5 279.81C150.81 279.57 152 279.45 153.05 279.31C154.1 279.17 155.05 279.08 155.74 279.03L157.45 278.9C157.632 278.87 157.816 278.854 158 278.85Z" fill="white"/>
<path d="M336.58 255.26C336.58 255.26 336.29 254.87 335.58 254.33C334.621 253.596 333.48 253.136 332.28 253C330.48 252.85 328.668 253.043 326.94 253.57C320.851 255.103 315.196 258.015 310.41 262.08C308.03 264.08 306.77 265.55 306.7 265.48C306.942 265.098 307.224 264.743 307.54 264.42C308.367 263.501 309.241 262.627 310.16 261.8C313.215 259.079 316.685 256.864 320.44 255.24C322.501 254.338 324.64 253.625 326.83 253.11C328.614 252.591 330.483 252.428 332.33 252.63C333.585 252.802 334.761 253.341 335.71 254.18C335.962 254.406 336.187 254.661 336.38 254.94C336.54 255.14 336.6 255.25 336.58 255.26Z" fill="white"/>
<path d="M658.54 228.85C657.146 229.187 655.713 229.335 654.28 229.29C652.598 229.24 650.924 229.032 649.28 228.67C647.111 228.16 644.982 227.491 642.91 226.67C640.6 225.8 638.14 224.67 635.48 223.56L631.33 221.89C629.9 221.32 628.39 220.83 626.87 220.27C620.195 218.01 613.389 216.156 606.49 214.72C593.947 212.109 581.211 210.53 568.41 210C565.95 209.87 563.73 209.87 561.77 209.82H556.77L553.61 209.89H552.5C552.593 209.872 552.688 209.872 552.78 209.89L553.6 209.83L556.77 209.66L561.77 209.57C563.77 209.57 565.95 209.57 568.41 209.69C581.246 210.109 594.022 211.648 606.59 214.29C613.504 215.71 620.321 217.567 627 219.85C628.52 220.41 630 220.91 631.47 221.49L635.62 223.2C638.28 224.35 640.73 225.47 643.02 226.36C645.063 227.184 647.166 227.852 649.31 228.36C650.931 228.748 652.585 228.983 654.25 229.06C655.301 229.096 656.354 229.059 657.4 228.95L658.21 228.85H658.54Z" fill="#263238"/>
<path d="M177.41 230.23C173.41 208.35 170.72 204.99 168.46 197.46C166.2 189.93 162.61 185.04 158.14 183.31C155.14 182.15 140.07 176.72 134.83 178.52C129.703 180.343 124.823 182.795 120.3 185.82C116.79 188.148 114.13 191.552 112.72 195.52L104.72 218.09L118.8 232.09L125.86 217.09L133.52 235.09L132.39 253.24L176.32 265.06C180.28 258.66 179.68 242.64 177.41 230.23Z" fill="#FFC727"/>
<g opacity="0.2">
<path d="M166 206.36C164.06 217.75 163.75 219.36 161.81 230.71C161.14 234.62 159.19 240.71 156.41 243.55C154.35 245.64 152.33 247.65 149.46 248.33C146.8 248.96 142.75 249.03 140.25 247.93C137.75 246.83 135.61 241.93 136.64 239.42C140.37 240.22 141.52 241.42 144.73 239.42C147.53 237.64 151.51 233.7 153.03 230.75C159.44 218.35 161.21 217.91 166.03 206.36" fill="black"/>
</g>
<path d="M134.17 228.43C133.459 227.473 132.811 226.471 132.23 225.43L127.71 218L123.07 210.69C122.378 209.706 121.753 208.677 121.2 207.61C121.441 207.829 121.652 208.078 121.83 208.35C122.21 208.84 122.74 209.57 123.37 210.48C124.65 212.3 126.37 214.85 128.15 217.72C129.93 220.59 131.48 223.25 132.55 225.2C133.09 226.2 133.55 226.96 133.79 227.52C133.963 227.802 134.092 228.109 134.17 228.43Z" fill="#263238"/>
<path d="M164.83 248.86C164.512 249.026 164.176 249.156 163.83 249.25C163.42 249.387 163.003 249.501 162.58 249.59C162.027 249.74 161.466 249.857 160.9 249.94C159.434 250.201 157.949 250.338 156.46 250.35C154.633 250.353 152.809 250.196 151.01 249.88C149.212 249.541 147.449 249.043 145.74 248.39C144.357 247.85 143.02 247.201 141.74 246.45C141.18 246.14 140.74 245.8 140.3 245.53C139.936 245.293 139.585 245.036 139.25 244.76C138.945 244.551 138.666 244.306 138.42 244.03C138.48 243.95 139.72 244.92 141.92 246.13C143.21 246.825 144.546 247.43 145.92 247.94C149.296 249.198 152.867 249.852 156.47 249.87C157.938 249.872 159.405 249.775 160.86 249.58C163.3 249.23 164.8 248.76 164.83 248.86Z" fill="#263238"/>
<path d="M147.2 214.77C147.12 215.16 142.4 224.56 142.4 224.56L120.12 212.82L117.85 203.22C117.475 201.678 116.505 200.348 115.152 199.52C113.799 198.691 112.173 198.433 110.63 198.8L104.06 201.49C103.789 201.596 103.549 201.767 103.36 201.989C103.172 202.211 103.041 202.476 102.98 202.76C102.89 203.24 102.98 203.76 103.85 203.65C105.48 203.52 108.85 203.16 108.85 203.16L107.3 208.63C106.891 210.063 107.048 211.599 107.74 212.92L108.74 214.81L110.91 218.32H110.86C110.86 218.32 132.52 240.57 144.68 242.02C151.99 242.89 160.27 222.4 160.27 222.4L147.2 214.77Z" fill="#B78876"/>
<path d="M108.69 203.53C108.69 203.53 108.86 203.3 109.23 203.05C109.725 202.705 110.316 202.523 110.92 202.53C111.235 202.548 111.54 202.65 111.802 202.826C112.064 203.002 112.274 203.245 112.41 203.53C112.62 203.98 112.48 204.28 112.41 204.26C112.34 204.24 112.41 203.98 112.17 203.64C112.023 203.424 111.828 203.244 111.601 203.115C111.374 202.985 111.121 202.908 110.86 202.89C110.319 202.898 109.787 203.035 109.31 203.29C109 203.44 108.72 203.57 108.69 203.53Z" fill="#AA6550"/>
<path d="M111.5 206.94C111.5 206.94 111.35 206.76 111.14 206.49C110.872 206.145 110.516 205.879 110.109 205.719C109.703 205.559 109.261 205.511 108.83 205.58C108.49 205.58 108.28 205.7 108.26 205.66C108.24 205.62 108.42 205.47 108.78 205.35C109.256 205.211 109.764 205.234 110.226 205.415C110.687 205.596 111.075 205.925 111.33 206.35C111.51 206.69 111.53 206.93 111.5 206.94Z" fill="#AA6550"/>
<path d="M151.82 185.1L145.82 213.69L161.82 223.3L167.96 205.73C167.96 205.73 165.38 184.39 151.82 185.1Z" fill="#FFC727"/>
<path d="M160.44 185.6C160.44 185.6 160.31 185.71 160.03 185.86C159.75 186.01 159.35 186.23 158.82 186.5C157.76 187.04 156.2 187.8 154.25 188.67C149.18 190.987 143.843 192.667 138.36 193.67C132.842 194.656 127.179 194.465 121.74 193.11C120.112 192.682 118.526 192.11 117 191.4C116.45 191.17 116 190.92 115.77 190.78C115.627 190.708 115.489 190.625 115.36 190.53C115.946 190.728 116.52 190.958 117.08 191.22C118.634 191.848 120.232 192.362 121.86 192.76C127.258 193.996 132.849 194.132 138.3 193.16C143.746 192.157 149.061 190.537 154.14 188.33C156.14 187.51 157.67 186.8 158.76 186.33C159.303 186.05 159.864 185.806 160.44 185.6Z" fill="#EBEBEB"/>
<path d="M164.65 188.76C164.513 188.884 164.362 188.991 164.2 189.08L162.88 189.93C162.182 190.387 161.461 190.808 160.72 191.19C159.86 191.64 158.9 192.19 157.77 192.69L156.03 193.49C155.42 193.77 154.76 194 154.09 194.27C152.76 194.82 151.28 195.27 149.74 195.77C142.988 197.806 135.931 198.642 128.89 198.24C127.27 198.11 125.73 198.02 124.31 197.79C123.59 197.68 122.9 197.61 122.24 197.49L120.35 197.11C119.15 196.9 118.08 196.58 117.14 196.34C116.332 196.145 115.534 195.908 114.75 195.63L113.26 195.11C113.082 195.063 112.91 194.992 112.75 194.9C112.934 194.91 113.116 194.947 113.29 195.01L114.81 195.43C115.46 195.63 116.26 195.86 117.21 196.06C118.16 196.26 119.21 196.57 120.43 196.75L122.31 197.09C122.96 197.21 123.65 197.27 124.31 197.36C125.73 197.57 127.31 197.65 128.86 197.76C135.849 198.115 142.847 197.287 149.56 195.31C151.09 194.83 152.56 194.4 153.89 193.86C154.55 193.6 155.21 193.38 155.82 193.12L157.57 192.35C158.7 191.89 159.66 191.35 160.57 190.93C161.48 190.51 162.18 190.1 162.76 189.76L164.14 189C164.299 188.898 164.47 188.817 164.65 188.76Z" fill="#EBEBEB"/>
<path d="M161.78 223.3C161.332 223.111 160.897 222.89 160.48 222.64L156.96 220.64L144.96 213.71L144.81 213.62V213.45C145.24 211.32 145.7 209.02 146.18 206.66C146.9 203.1 147.6 199.72 148.18 196.66C148.51 195.12 148.78 193.66 149.08 192.27C149.351 190.985 149.781 189.739 150.36 188.56C151.198 186.809 152.682 185.451 154.5 184.77C154.992 184.601 155.509 184.516 156.03 184.52C156.209 184.508 156.388 184.528 156.56 184.58C155.878 184.603 155.203 184.731 154.56 184.96C152.842 185.685 151.458 187.026 150.68 188.72C150.139 189.885 149.74 191.11 149.49 192.37C149.22 193.74 148.94 195.21 148.64 196.74C148.02 199.84 147.34 203.22 146.64 206.74C146.16 209.11 145.69 211.4 145.26 213.53L145.14 213.27L157.07 220.36L160.52 222.46C160.963 222.704 161.384 222.985 161.78 223.3Z" fill="#263238"/>
<path d="M166.67 204.88C166.758 205.77 166.731 206.667 166.59 207.55C166.38 209.687 165.999 211.804 165.45 213.88C164.901 215.958 164.192 217.991 163.33 219.96C163.017 220.797 162.597 221.591 162.08 222.32C162.325 221.466 162.629 220.631 162.99 219.82C164.508 215.841 165.594 211.711 166.23 207.5C166.321 206.618 166.468 205.743 166.67 204.88Z" fill="#263238"/>
<path d="M79.92 363.91L79.74 379.17C79.74 379.17 64.16 384.12 63.86 386.94L93.44 388.34L94.7 364.57L79.92 363.91Z" fill="#455A64"/>
<path d="M88.9999 378.32C89.2807 378.42 89.5145 378.621 89.6566 378.883C89.7987 379.145 89.839 379.45 89.7699 379.74C89.6818 380.025 89.487 380.265 89.2263 380.411C88.9656 380.556 88.6588 380.595 88.3699 380.52C88.0735 380.411 87.8273 380.197 87.678 379.919C87.5287 379.641 87.4867 379.317 87.5599 379.01C87.6856 378.724 87.9172 378.497 88.2061 378.378C88.495 378.259 88.8189 378.256 89.1099 378.37" fill="#E0E0E0"/>
<path d="M93.44 388.34V385.94L65.06 385.49C65.06 385.49 63.71 386 63.82 386.94L93.44 388.34Z" fill="#E0E0E0"/>
<path d="M79.27 379C79.27 379.14 79.99 379.24 80.67 379.74C81.35 380.24 81.67 380.86 81.85 380.81C82.03 380.76 81.85 379.92 80.96 379.33C80.07 378.74 79.24 378.86 79.27 379Z" fill="#263238"/>
<path d="M76.1 380.13C76.1 380.27 76.68 380.55 77.1 381.18C77.52 381.81 77.67 382.47 77.82 382.47C77.97 382.47 78.09 381.66 77.5 380.88C76.91 380.1 76.11 380 76.1 380.13Z" fill="#263238"/>
<path d="M74.16 383.76C74.29 383.76 74.53 383.09 74.16 382.28C73.79 381.47 73.16 381.13 73.1 381.28C73.04 381.43 73.43 381.84 73.69 382.51C73.95 383.18 74 383.74 74.16 383.76Z" fill="#263238"/>
<path d="M79.69 375.52C79.75 375.66 80.42 375.52 81.24 375.58C82.06 375.64 82.67 375.97 82.75 375.85C82.83 375.73 82.25 375.18 81.29 375.08C80.33 374.98 79.63 375.41 79.69 375.52Z" fill="#263238"/>
<g opacity="0.3">
<path d="M79.89 366.93L79.85 369.65L94.4 370.21L94.53 367.76L79.89 366.93Z" fill="black"/>
</g>
<path d="M79.79 372.44C80.2675 372.599 80.7796 372.623 81.27 372.51C81.8085 372.44 82.3361 372.303 82.84 372.1C83.141 371.988 83.4321 371.851 83.71 371.69C83.8828 371.609 84.0415 371.501 84.18 371.37C84.2803 371.271 84.3446 371.142 84.3627 371.002C84.3808 370.863 84.3517 370.721 84.28 370.6C84.2112 370.496 84.1195 370.41 84.012 370.348C83.9045 370.285 83.784 370.248 83.66 370.24C83.4719 370.23 83.2834 370.247 83.1 370.29C82.7824 370.351 82.4711 370.442 82.17 370.56C81.661 370.764 81.1857 371.044 80.76 371.39C80.04 372 79.76 372.53 79.83 372.56C79.9 372.59 80.25 372.17 80.97 371.68C81.3934 371.398 81.8503 371.17 82.33 371C82.6105 370.904 82.898 370.831 83.19 370.78C83.51 370.71 83.78 370.72 83.85 370.86C83.92 371 83.85 370.94 83.85 371.03C83.7464 371.123 83.6323 371.204 83.51 371.27C83.24 371.42 82.97 371.56 82.71 371.68C82.2388 371.884 81.7501 372.044 81.25 372.16C80.7578 372.222 80.2701 372.315 79.79 372.44Z" fill="#263238"/>
<path d="M79.9999 372.66C80.2973 372.25 80.455 371.756 80.4499 371.25C80.5054 370.704 80.4648 370.152 80.33 369.62C80.2494 369.302 80.1354 368.994 79.9899 368.7C79.9196 368.501 79.7988 368.323 79.6393 368.185C79.4798 368.046 79.287 367.952 79.08 367.91C78.9493 367.905 78.8201 367.938 78.7081 368.006C78.5962 368.073 78.5064 368.172 78.4499 368.29C78.3617 368.459 78.3009 368.642 78.2699 368.83C78.2199 369.161 78.2199 369.499 78.2699 369.83C78.3247 370.388 78.5171 370.924 78.83 371.39C79.37 372.19 79.97 372.39 79.98 372.34C79.99 372.29 79.5399 371.97 79.1299 371.21C78.8954 370.775 78.7589 370.294 78.73 369.8C78.7139 369.511 78.7374 369.222 78.8 368.94C78.86 368.63 78.9899 368.38 79.1099 368.42C79.2299 368.46 79.4899 368.67 79.5999 368.93C79.7355 369.192 79.846 369.467 79.9299 369.75C80.0736 370.234 80.1477 370.735 80.15 371.24C80.07 372.1 79.8899 372.63 79.9999 372.66Z" fill="#263238"/>
<path d="M140.22 253.4C140.22 253.4 94 234 79.7 233.19C70.7 232.67 63.94 238.43 65.16 247.71C65.77 252.36 78.54 306.71 78.54 306.71L98 297.83L88.64 260.24L126.64 278.7L140.22 253.4Z" fill="#263238"/>
<path d="M82.83 250.73C82.68 250.86 84.21 252.83 85.83 255.44C87.45 258.05 88.53 260.3 88.71 260.23C88.89 260.16 88.06 257.75 86.41 255.09C84.76 252.43 83 250.61 82.83 250.73Z" fill="#455A64"/>
<path d="M79.05 252.89C78.95 253.06 81.28 254.54 84.05 256.56C86.82 258.58 88.9 260.35 89.05 260.21C89.2 260.07 87.2 258 84.42 256C81.64 254 79.13 252.73 79.05 252.89Z" fill="#455A64"/>
<path d="M176.27 265.06C176.27 265.06 170.46 272.55 164.92 274.6C157.92 277.17 106.46 301.46 106.46 301.46C106.46 301.46 97.12 370.85 97.86 367.95L76.31 367.43L78.65 303.52C78.93 295.34 85.49 285.94 92.54 281.76L140.22 253.4L176.27 265.06Z" fill="#263238"/>
<path d="M78.24 315.22C78.3084 314.932 78.3387 314.636 78.33 314.34C78.33 313.7 78.41 312.87 78.46 311.83C78.5824 308.753 78.8695 305.686 79.32 302.64C79.9513 298.139 81.5477 293.827 84 290C85.5174 287.8 87.3895 285.867 89.54 284.28C91.8736 282.58 94.3154 281.033 96.85 279.65C107.22 273.71 116.17 267.65 122.79 263.5C126.09 261.4 128.79 259.73 130.63 258.59L132.77 257.27C133.029 257.127 133.273 256.96 133.5 256.77C133.225 256.87 132.96 256.997 132.71 257.15C132.2 257.42 131.45 257.82 130.5 258.36C128.59 259.43 125.87 261.05 122.5 263.09C115.81 267.15 106.81 273.14 96.5 279.09C93.9394 280.489 91.4741 282.056 89.12 283.78C86.9157 285.415 85.0023 287.41 83.46 289.68C80.9932 293.607 79.4194 298.028 78.85 302.63C78.4381 305.696 78.2244 308.786 78.21 311.88C78.21 312.88 78.21 313.75 78.21 314.4C78.1955 314.674 78.2055 314.948 78.24 315.22Z" fill="#455A64"/>
<path d="M157.25 272.37C156.851 271.751 156.41 271.159 155.93 270.6C154.937 269.156 154.247 267.524 153.903 265.805C153.559 264.086 153.569 262.315 153.93 260.6C154.152 259.896 154.326 259.178 154.45 258.45C153.964 259.029 153.622 259.714 153.45 260.45C152.938 262.226 152.862 264.099 153.23 265.91C153.589 267.721 154.385 269.417 155.55 270.85C156.46 272 157.21 272.43 157.25 272.37Z" fill="#455A64"/>
<path d="M84.2299 367.43C84.2653 367.316 84.2854 367.199 84.2899 367.08C84.2899 366.8 84.3699 366.46 84.4199 366.03C84.5299 365.03 84.6699 363.71 84.8499 362.03C85.1999 358.47 85.6999 353.4 86.3199 347.16C86.6099 344.02 86.9399 340.58 87.3199 336.89C87.6999 333.2 88.0499 329.25 88.3199 325.09C88.5899 320.93 89.0299 316.58 89.7899 312.09C90.5321 307.484 91.877 302.995 93.7899 298.74C95.7876 294.535 98.4257 290.666 101.61 287.27C104.594 284.111 107.861 281.232 111.37 278.67C117.384 274.434 123.631 270.538 130.08 267C135.55 263.86 139.91 261.18 142.8 259.16C144.26 258.16 145.36 257.35 146.1 256.78L146.93 256.13C147.117 255.983 147.207 255.903 147.2 255.89C147.089 255.935 146.984 255.996 146.89 256.07L146.02 256.67C145.26 257.2 144.13 257.98 142.66 258.95C139.72 260.89 135.34 263.5 129.84 266.59C123.338 270.077 117.047 273.943 111 278.17C107.444 280.739 104.136 283.635 101.12 286.82C97.8788 290.261 95.1964 294.189 93.1699 298.46C91.2489 302.768 89.904 307.311 89.1699 311.97C88.4199 316.47 88.0399 320.84 87.7299 324.97C87.4199 329.1 87.1099 333.08 86.7299 336.77C86.3499 340.46 86.1099 343.9 85.8399 347.05C85.3099 353.3 84.8399 358.37 84.5899 361.94C84.4566 363.66 84.3566 364.993 84.2899 365.94C84.2899 366.37 84.2399 366.72 84.2199 366.99C84.1999 367.26 84.2099 367.43 84.2299 367.43Z" fill="#455A64"/>
<path d="M135 143.34C134.274 141.471 132.906 139.922 131.141 138.971C129.376 138.02 127.33 137.729 125.37 138.15C124.508 138.465 123.606 138.661 122.69 138.73C121.58 138.54 120.489 138.252 119.43 137.87C118.23 137.675 117 137.934 115.98 138.596C114.96 139.257 114.222 140.275 113.91 141.45C112.971 141.222 111.993 141.201 111.045 141.389C110.097 141.578 109.201 141.97 108.42 142.54C107.654 143.133 107.111 143.966 106.877 144.906C106.642 145.846 106.732 146.837 107.13 147.72C107.52 148.45 108.13 149.03 108.52 149.78C109.11 151.01 108.84 152.49 109.25 153.78C109.635 154.718 110.276 155.529 111.1 156.12C111.924 156.71 112.898 157.057 113.91 157.12C115.946 157.225 117.983 156.936 119.91 156.27" fill="#263238"/>
<path d="M125.69 182.89C125.44 180.95 125.28 179.59 125.28 179.59C125.28 179.59 118.83 179.59 116.28 171.59C114.99 167.59 114.13 160.91 113.61 155.39C113.496 154.214 113.622 153.027 113.979 151.901C114.337 150.775 114.918 149.733 115.689 148.838C116.46 147.943 117.404 147.213 118.465 146.693C119.525 146.172 120.68 145.872 121.86 145.81L138.98 144.92L139.35 147.57L143.86 180.49C144.023 181.684 143.949 182.898 143.641 184.062C143.333 185.227 142.798 186.319 142.067 187.276C141.335 188.234 140.422 189.037 139.379 189.64C138.336 190.243 137.184 190.634 135.99 190.79C134.795 190.95 133.579 190.873 132.414 190.562C131.249 190.251 130.156 189.713 129.199 188.979C128.242 188.245 127.439 187.33 126.837 186.285C126.235 185.24 125.845 184.086 125.69 182.89Z" fill="#B78876"/>
<path d="M116 160.1C116.042 160.373 116.189 160.62 116.409 160.788C116.629 160.956 116.905 161.032 117.18 161C117.316 160.991 117.449 160.955 117.57 160.893C117.692 160.832 117.8 160.746 117.887 160.641C117.974 160.536 118.039 160.414 118.077 160.283C118.115 160.153 118.127 160.015 118.11 159.88C118.073 159.604 117.927 159.355 117.706 159.186C117.485 159.017 117.206 158.943 116.93 158.98C116.794 158.989 116.661 159.025 116.539 159.087C116.418 159.148 116.31 159.234 116.223 159.339C116.136 159.444 116.071 159.566 116.033 159.697C115.995 159.827 115.983 159.965 116 160.1Z" fill="#263238"/>
<path d="M115.56 158.62C115.71 158.73 116.41 158.02 117.56 157.84C118.71 157.66 119.56 158.1 119.71 157.94C119.86 157.78 119.59 157.64 119.19 157.44C118.648 157.174 118.035 157.086 117.44 157.19C116.851 157.278 116.307 157.555 115.89 157.98C115.56 158.3 115.48 158.57 115.56 158.62Z" fill="#263238"/>
<path d="M126.72 158.28C126.762 158.553 126.909 158.798 127.129 158.965C127.35 159.131 127.626 159.204 127.9 159.17C128.036 159.163 128.169 159.128 128.291 159.067C128.413 159.006 128.521 158.922 128.609 158.818C128.697 158.714 128.763 158.593 128.803 158.463C128.843 158.332 128.855 158.195 128.84 158.06C128.798 157.787 128.651 157.54 128.431 157.372C128.211 157.204 127.935 157.128 127.66 157.16C127.523 157.167 127.389 157.203 127.266 157.264C127.144 157.325 127.035 157.411 126.947 157.516C126.858 157.621 126.793 157.743 126.754 157.874C126.715 158.006 126.703 158.144 126.72 158.28Z" fill="#263238"/>
<path d="M126.7 157.06C126.85 157.18 127.55 156.46 128.7 156.29C129.85 156.12 130.7 156.54 130.85 156.38C131 156.22 130.73 156.09 130.33 155.88C129.785 155.623 129.175 155.536 128.58 155.63C127.993 155.725 127.451 156.001 127.03 156.42C126.7 156.74 126.63 157 126.7 157.06Z" fill="#263238"/>
<path d="M123.93 166.1C123.303 166.015 122.667 166.015 122.04 166.1C121.75 166.1 121.47 166.1 121.39 165.91C121.298 165.62 121.298 165.31 121.39 165.02C121.55 164.28 121.72 163.5 121.9 162.69C122.388 160.702 122.722 158.679 122.9 156.64C122.245 158.597 121.747 160.604 121.41 162.64C121.25 163.46 121.09 164.24 120.95 164.99C120.81 165.361 120.81 165.769 120.95 166.14C121.008 166.235 121.087 166.315 121.181 166.376C121.274 166.436 121.38 166.475 121.49 166.49C121.656 166.511 121.824 166.511 121.99 166.49C122.65 166.443 123.302 166.312 123.93 166.1Z" fill="#263238"/>
<path d="M125.28 179.59C129.145 179.035 132.78 177.419 135.78 174.92C135.78 174.92 134 181 125.69 181.51L125.28 179.59Z" fill="#AA6550"/>
<path d="M127.38 166.35C127.19 166.35 127.38 167.59 126.48 168.63C125.58 169.67 124.24 169.74 124.25 169.91C124.26 170.08 124.58 170.11 125.14 170.03C125.861 169.933 126.522 169.578 127 169.03C127.468 168.511 127.713 167.828 127.68 167.13C127.65 166.61 127.46 166.33 127.38 166.35Z" fill="#263238"/>
<path d="M125.7 152.68C125.86 152.97 126.97 152.68 128.32 152.59C129.67 152.5 130.8 152.73 130.93 152.43C131.06 152.13 130.76 152.03 130.28 151.8C129.643 151.522 128.952 151.395 128.258 151.428C127.564 151.461 126.887 151.653 126.28 151.99C125.84 152.26 125.63 152.54 125.7 152.68Z" fill="#263238"/>
<path d="M115.45 155.28C115.69 155.5 116.45 155.11 117.36 154.95C118.27 154.79 119.12 154.85 119.26 154.55C119.32 154.41 119.15 154.17 118.77 153.99C118.258 153.762 117.689 153.7 117.14 153.81C116.592 153.907 116.089 154.172 115.7 154.57C115.41 154.89 115.34 155.17 115.45 155.28Z" fill="#263238"/>
<path d="M112.71 151.78C112.71 151.78 117.24 153.31 122.44 149.83C125.85 147.55 129.99 146.12 131.02 146.74C132.05 147.36 132.72 151.08 136.47 151.74C136.47 151.74 137.13 158.94 139.96 158.32C141.96 157.88 140.8 149.94 139.96 145.41C139.785 144.534 139.321 143.742 138.643 143.161C137.965 142.579 137.112 142.241 136.22 142.2L130.95 141.99L124.37 143.83L117.31 145.75L111.93 148L112.71 151.78Z" fill="#263238"/>
<path d="M139.33 155.39C139.43 155.32 143.8 153.02 144.61 157.79C145.42 162.56 140.47 162.38 140.43 162.25C140.39 162.12 139.33 155.39 139.33 155.39Z" fill="#B78876"/>
<path d="M141.58 160.19C141.58 160.19 141.68 160.24 141.83 160.28C142.041 160.33 142.262 160.298 142.45 160.19C142.722 159.942 142.924 159.626 143.036 159.275C143.149 158.924 143.167 158.55 143.09 158.19C143.032 157.78 142.885 157.387 142.66 157.04C142.587 156.899 142.482 156.778 142.354 156.686C142.225 156.594 142.076 156.533 141.92 156.51C141.821 156.502 141.721 156.528 141.639 156.584C141.557 156.641 141.497 156.724 141.47 156.82C141.47 156.96 141.47 157.05 141.47 157.07C141.47 157.09 141.36 157 141.36 156.8C141.368 156.677 141.418 156.561 141.5 156.47C141.615 156.349 141.773 156.278 141.94 156.27C142.143 156.274 142.342 156.33 142.518 156.434C142.693 156.537 142.838 156.684 142.94 156.86C143.214 157.238 143.389 157.678 143.45 158.14C143.549 158.561 143.52 159.002 143.367 159.406C143.214 159.811 142.943 160.16 142.59 160.41C142.468 160.468 142.335 160.498 142.2 160.498C142.065 160.498 141.932 160.468 141.81 160.41C141.61 160.31 141.57 160.21 141.58 160.19Z" fill="#AA6550"/>
<path d="M115 139.69C115 139.69 115.16 139.95 115.5 140.33C115.987 140.869 116.608 141.269 117.3 141.49C118.328 141.822 119.427 141.87 120.48 141.63C121.79 141.312 123.076 140.904 124.33 140.41C125.628 139.899 127.015 139.651 128.41 139.68C129.59 139.723 130.706 140.225 131.52 141.08C132.074 141.638 132.411 142.376 132.47 143.16C132.512 143.445 132.463 143.735 132.33 143.99C132.28 143.99 132.33 143.69 132.27 143.18C132.145 142.471 131.794 141.822 131.27 141.33C130.499 140.592 129.477 140.173 128.41 140.16C127.078 140.161 125.759 140.412 124.52 140.9C123.245 141.407 121.931 141.809 120.59 142.1C119.458 142.334 118.283 142.244 117.2 141.84C116.465 141.57 115.825 141.09 115.36 140.46C115 140 115 139.7 115 139.69Z" fill="#455A64"/>
<path d="M131.11 144.26C131.11 144.26 130.87 144.01 130.37 143.66C129.657 143.224 128.836 142.995 128 143C126.732 142.995 125.483 143.301 124.36 143.89C122.957 144.648 121.507 145.316 120.02 145.89C118.609 146.328 117.122 146.471 115.653 146.312C114.184 146.152 112.764 145.692 111.48 144.96C110.703 144.523 109.993 143.977 109.37 143.34C109.127 143.123 108.924 142.866 108.77 142.58C109.655 143.363 110.621 144.05 111.65 144.63C114.179 145.957 117.129 146.234 119.86 145.4C121.326 144.807 122.762 144.139 124.16 143.4C125.354 142.796 126.684 142.513 128.02 142.58C128.928 142.615 129.802 142.933 130.52 143.49C130.782 143.689 130.986 143.955 131.11 144.26Z" fill="#455A64"/>
<path d="M116.3 225.52L93.08 205.73L85.42 207.46C85.42 207.46 93.49 224.24 99.33 230.39C99.33 230.39 105.1 238.11 114.62 234.77C124.14 231.43 116.3 225.52 116.3 225.52Z" fill="#B78876"/>
<path d="M91.32 183.93H81.45C81.0775 183.95 80.7143 184.053 80.3866 184.231C80.059 184.41 79.7752 184.659 79.5558 184.96C79.3365 185.262 79.1872 185.609 79.1187 185.976C79.0502 186.342 79.0643 186.719 79.16 187.08L89.09 206.41C89.2783 206.778 89.5648 207.087 89.9178 207.302C90.2708 207.518 90.6765 207.631 91.09 207.63H103.09C103.372 207.599 103.642 207.498 103.876 207.337C104.109 207.175 104.3 206.959 104.429 206.707C104.559 206.454 104.624 206.173 104.619 205.89C104.614 205.606 104.539 205.328 104.4 205.08L94.83 186.15C94.5042 185.494 94.0046 184.94 93.3857 184.549C92.7667 184.157 92.0522 183.943 91.32 183.93Z" fill="#455A64"/>
<path d="M90.66 185.1H80.79C80.5067 185.098 80.2277 185.169 79.9799 185.307C79.7322 185.444 79.5239 185.643 79.3752 185.884C79.2265 186.125 79.1424 186.4 79.131 186.683C79.1196 186.966 79.1812 187.248 79.31 187.5L89 206.41C89.19 206.777 89.4769 207.084 89.8295 207.299C90.1821 207.514 90.5869 207.629 91 207.63H102.9C103.063 207.623 103.223 207.576 103.364 207.494C103.505 207.411 103.623 207.295 103.709 207.156C103.795 207.017 103.846 206.859 103.856 206.696C103.867 206.532 103.837 206.369 103.77 206.22L94.19 187.3C93.8663 186.64 93.3639 186.084 92.7399 185.695C92.1159 185.306 91.3953 185.1 90.66 185.1Z" fill="#263238"/>
<path d="M89.82 193L83.82 195.4L82.54 200.24L85.43 207.44L96 209L92.9 205.83L93.29 203.06C93.29 203.06 96.29 202.13 96.29 201.68C96.29 201.23 95.92 199.68 95.47 199.63C94.2861 199.9 93.1258 200.265 92 200.72C92 200.72 95.67 197.81 95.57 197.34C95.47 196.87 95.07 195.68 94.34 195.54C93.61 195.4 87.67 198.21 87.67 198.21L86.67 200.4L85.83 196.89C85.83 196.89 91.12 195.41 89.82 193Z" fill="#B78876"/>
<path d="M90.58 204.36C90.58 204.36 90.43 204.16 90.37 203.76C90.3068 203.251 90.3644 202.734 90.5381 202.251C90.7118 201.768 90.9968 201.332 91.37 200.98C91.67 200.72 91.9 200.63 91.92 200.66C91.4636 201.165 91.0891 201.739 90.81 202.36C90.6319 203.011 90.5544 203.686 90.58 204.36Z" fill="#AA6550"/>
<path d="M87.72 203.31C87.8371 202.793 87.9173 202.268 87.96 201.74C87.9843 201.149 88.0851 200.565 88.26 200C88.3742 199.637 88.5737 199.307 88.8416 199.038C89.1095 198.768 89.4382 198.567 89.8 198.45C91.23 197.93 92.53 197.51 93.47 197.2C93.9726 197.01 94.4914 196.866 95.02 196.77C94.5544 197.036 94.0616 197.25 93.55 197.41C92.62 197.77 91.32 198.23 89.91 198.74C89.5807 198.853 89.2803 199.038 89.03 199.28C88.8079 199.515 88.6376 199.795 88.53 200.1C88.3469 200.641 88.2294 201.201 88.18 201.77C88.1606 202.314 88.0022 202.844 87.72 203.31Z" fill="#AA6550"/>
<path d="M86.3399 202.23C86.2453 201.839 86.2453 201.431 86.3399 201.04C86.4499 200.4 86.5999 199.9 86.6899 199.91C86.7838 200.301 86.7838 200.709 86.6899 201.1C86.5799 201.74 86.4299 202.24 86.3399 202.23Z" fill="#AA6550"/>
<path d="M86.18 188.75C86.18 188.999 86.2539 189.243 86.3923 189.45C86.5308 189.657 86.7276 189.819 86.9578 189.914C87.188 190.009 87.4414 190.034 87.6858 189.986C87.9302 189.937 88.1547 189.817 88.3309 189.641C88.5071 189.465 88.6271 189.24 88.6758 188.996C88.7244 188.751 88.6994 188.498 88.6041 188.268C88.5087 188.038 88.3472 187.841 88.14 187.702C87.9328 187.564 87.6892 187.49 87.44 187.49C87.2741 187.489 87.1097 187.52 86.9562 187.583C86.8027 187.646 86.6633 187.739 86.546 187.856C86.4288 187.973 86.336 188.113 86.2732 188.266C86.2103 188.42 86.1786 188.584 86.18 188.75Z" fill="#FAFAFA"/>
<path d="M51.6 379.36C53.1663 379.845 54.6184 380.642 55.8694 381.702C57.1203 382.763 58.1443 384.064 58.88 385.53C60.3378 388.475 61.1007 391.714 61.11 395C61.31 401.32 58.69 408.12 55.6 413.65C49.69 409.85 47.33 402 46.37 398C44.87 391.62 46.02 379.18 51.6 379.35" fill="#FFC727"/>
<path d="M63.1899 423.05C62.5739 421.322 62.4251 419.463 62.7588 417.659C63.0924 415.856 63.8966 414.173 65.0899 412.78C66.3077 411.41 67.7868 410.296 69.4403 409.504C71.0939 408.713 72.8888 408.259 74.7199 408.17C76.3999 408.05 78.2799 408.27 79.4299 409.51C79.9353 410.12 80.2685 410.855 80.3951 411.637C80.5217 412.419 80.4371 413.221 80.1499 413.96C79.5522 415.431 78.5758 416.718 77.3199 417.69C73.1899 421.21 68.5499 423.85 63.1899 423.05Z" fill="#FFC727"/>
<path d="M59.25 443.12C59.2046 442.688 59.2046 442.252 59.25 441.82C59.25 440.89 59.33 439.7 59.38 438.27C59.4191 434.331 60.0945 430.424 61.38 426.7C62.7243 422.969 65.0366 419.663 68.08 417.12C69.0035 416.373 70.0102 415.736 71.08 415.22C71.46 415.03 71.78 414.94 71.98 414.85C72.18 414.76 72.3 414.74 72.31 414.76C69.8428 415.98 67.6425 417.678 65.8366 419.755C64.0307 421.832 62.6553 424.247 61.79 426.86C60.5386 430.547 59.8411 434.399 59.72 438.29C59.62 439.78 59.53 440.99 59.45 441.83C59.419 442.265 59.3521 442.696 59.25 443.12Z" fill="#263238"/>
<path d="M51.5599 388.91C51.6198 389.09 51.6666 389.274 51.6999 389.46C51.7866 389.873 51.8966 390.403 52.0299 391.05C52.3099 392.43 52.6899 394.44 53.1299 396.92C54.0199 401.92 55.1299 408.77 56.2199 416.39C57.3099 424.01 58.1199 430.93 58.6399 435.95C58.8999 438.46 59.0899 440.49 59.2099 441.9C59.2566 442.567 59.2966 443.107 59.3299 443.52C59.3587 443.706 59.3587 443.894 59.3299 444.08C59.2801 443.897 59.2466 443.709 59.2299 443.52C59.1799 443.11 59.1099 442.58 59.0199 441.91C58.8399 440.46 58.5999 438.45 58.2999 435.99C57.6999 430.99 56.8299 424.07 55.7599 416.45C54.6899 408.83 53.6099 402 52.8099 397C52.4099 394.55 52.0899 392.55 51.8099 391.1C51.7099 390.44 51.6299 389.91 51.5599 389.5C51.5338 389.304 51.5338 389.106 51.5599 388.91Z" fill="#263238"/>
<path d="M54.67 428.16C53.4935 424.484 51.4587 421.141 48.7338 418.407C46.0089 415.674 42.6723 413.628 39 412.44C37.12 411.85 34.76 411.64 33.5 413.15C32.24 414.66 32.92 416.96 33.89 418.67C35.9764 422.203 39.0628 425.038 42.7594 426.818C46.4561 428.598 50.5972 429.242 54.66 428.67" fill="#FFC727"/>
<path d="M40.6699 418.22C41.0722 418.291 41.4672 418.398 41.8499 418.54C42.3097 418.675 42.7605 418.839 43.1999 419.03C43.7199 419.26 44.3299 419.46 44.9499 419.8C45.6353 420.135 46.3028 420.506 46.9499 420.91C47.7116 421.369 48.4492 421.866 49.1599 422.4C52.4324 424.858 55.0551 428.078 56.7999 431.78C57.1791 432.584 57.5129 433.409 57.7999 434.25C58.0629 434.976 58.28 435.717 58.4499 436.47C58.6053 437.089 58.7255 437.717 58.8099 438.35C58.8969 438.823 58.9536 439.3 58.9799 439.78C59.0213 440.185 59.028 440.594 58.9999 441C58.8899 441 58.8199 439.25 58.1099 436.54C57.9207 435.805 57.6938 435.081 57.4299 434.37C57.143 433.545 56.8091 432.737 56.4299 431.95C55.5431 430.173 54.4669 428.496 53.2199 426.95C51.9376 425.409 50.4963 424.008 48.9199 422.77C48.2293 422.237 47.5117 421.739 46.7699 421.28C46.1246 420.861 45.457 420.477 44.7699 420.13C42.3199 418.8 40.6299 418.31 40.6699 418.22Z" fill="#263238"/>
</svg>
