<svg width="108" height="108" viewBox="0 0 108 108" fill="none" xmlns="http://www.w3.org/2000/svg">
<circle cx="4" cy="4" r="4" fill="#00FFAB"/>
<circle cx="29" cy="4" r="4" fill="#00FFAB"/>
<circle cx="54" cy="4" r="4" fill="#00FFAB"/>
<circle cx="79" cy="4" r="4" fill="#00FFAB"/>
<circle cx="104" cy="4" r="4" fill="#00FFAB"/>
<circle cx="4" cy="29" r="4" fill="#00FFAB"/>
<circle cx="29" cy="29" r="4" fill="#00FFAB"/>
<circle cx="54" cy="29" r="4" fill="#00FFAB"/>
<circle cx="79" cy="29" r="4" fill="#00FFAB"/>
<circle cx="104" cy="29" r="4" fill="#00FFAB"/>
<circle cx="4" cy="54" r="4" fill="#00FFAB"/>
<circle cx="29" cy="54" r="4" fill="#00FFAB"/>
<circle cx="54" cy="54" r="4" fill="#00FFAB"/>
<circle cx="79" cy="54" r="4" fill="#00FFAB"/>
<circle cx="104" cy="54" r="4" fill="#00FFAB"/>
<circle cx="4" cy="79" r="4" fill="#00FFAB"/>
<circle cx="29" cy="79" r="4" fill="#00FFAB"/>
<circle cx="54" cy="79" r="4" fill="#00FFAB"/>
<circle cx="79" cy="79" r="4" fill="#00FFAB"/>
<circle cx="104" cy="79" r="4" fill="#00FFAB"/>
<circle cx="4" cy="104" r="4" fill="#00FFAB"/>
<circle cx="29" cy="104" r="4" fill="#00FFAB"/>
<circle cx="54" cy="104" r="4" fill="#00FFAB"/>
<circle cx="79" cy="104" r="4" fill="#00FFAB"/>
<circle cx="104" cy="104" r="4" fill="#00FFAB"/>
</svg>
