<svg xmlns="http://www.w3.org/2000/svg" viewBox="0 0 750 500"><g id="freepik--background-complete--inject-47"><path d="M673.73,333.61H493a5.87,5.87,0,0,1-5.86-5.86V64.47A5.87,5.87,0,0,1,493,58.61H673.73a5.87,5.87,0,0,1,5.87,5.86V327.75A5.87,5.87,0,0,1,673.73,333.61ZM493,58.86a5.61,5.61,0,0,0-5.61,5.61V327.75a5.61,5.61,0,0,0,5.61,5.61H673.73a5.62,5.62,0,0,0,5.62-5.61V64.47a5.62,5.62,0,0,0-5.62-5.61Z" style="fill:#e0e0e0"></path><path d="M465.31,333.61H284.56a5.87,5.87,0,0,1-5.86-5.86V64.47a5.87,5.87,0,0,1,5.86-5.86H465.31a5.87,5.87,0,0,1,5.86,5.86V327.75A5.87,5.87,0,0,1,465.31,333.61ZM284.56,58.86A5.62,5.62,0,0,0,279,64.47V327.75a5.62,5.62,0,0,0,5.61,5.61H465.31a5.62,5.62,0,0,0,5.61-5.61V64.47a5.62,5.62,0,0,0-5.61-5.61Z" style="fill:#e0e0e0"></path><path d="M257,333.61H76.27a5.87,5.87,0,0,1-5.87-5.86V64.47a5.87,5.87,0,0,1,5.87-5.86H257a5.87,5.87,0,0,1,5.86,5.86V327.75A5.87,5.87,0,0,1,257,333.61ZM76.27,58.86a5.62,5.62,0,0,0-5.62,5.61V327.75a5.62,5.62,0,0,0,5.62,5.61H257a5.61,5.61,0,0,0,5.61-5.61V64.47A5.61,5.61,0,0,0,257,58.86Z" style="fill:#e0e0e0"></path><rect y="394.68" width="750" height="0.12" style="fill:#e0e0e0"></rect><path d="M247.43,121.58a24.94,24.94,0,0,1,35.27,35.27l-14.09,14.09a5,5,0,0,1-7.08,0l-14.1-14.1A24.94,24.94,0,0,1,247.43,121.58Zm17.64,29.23a11.58,11.58,0,1,0-11.58-11.58h0a11.58,11.58,0,0,0,11.58,11.56Z" style="fill:#e6e6e6"></path><g id="freepik--freepik--background-complete--inject-481--inject-47"><polygon points="662.58 242.65 662.58 195.15 633.17 195.15 633.17 205.98 613.57 205.98 613.57 87.31 575.87 87.31 575.87 134.02 564.56 134.02 564.56 110.7 535.15 110.7 535.15 224.44 493.67 224.44 493.67 184.25 467.67 184.25 467.67 97.12 435.57 97.12 435.57 155.21 405.41 155.21 405.41 280.35 382.04 280.35 382.04 219.41 357.91 219.41 357.91 180.2 332.27 180.2 332.27 150.1 303.67 165.18 303.67 245.72 273.51 245.72 273.51 229.11 233.21 229.11 233.21 345.84 702.22 346.07 702.22 242.65 662.58 242.65" style="fill:#ebebeb"></polygon><path d="M359.87,345.91V172.23h-32V346.07C338,345.82,359.87,345.91,359.87,345.91Z" style="fill:#e6e6e6"></path><path d="M330.69,346.07V250.55H264.74v95.31Z" style="fill:#fafafa"></path><path d="M410.82,345.93V205.7H373.46V345.91Z" style="fill:#e0e0e0"></path><rect x="376.3" y="211.2" width="4.53" height="9.34" style="fill:#fafafa"></rect><rect x="385.35" y="211.2" width="4.53" height="9.34" style="fill:#fafafa"></rect><rect x="394.41" y="211.2" width="4.53" height="9.34" style="fill:#fafafa"></rect><rect x="403.47" y="211.2" width="4.53" height="9.34" style="fill:#fafafa"></rect><rect x="376.3" y="226.87" width="4.53" height="9.34" style="fill:#fafafa"></rect><rect x="385.35" y="226.87" width="4.53" height="9.34" style="fill:#fafafa"></rect><rect x="394.41" y="226.87" width="4.53" height="9.34" style="fill:#fafafa"></rect><rect x="403.47" y="226.87" width="4.53" height="9.34" style="fill:#fafafa"></rect><rect x="376.3" y="242.53" width="4.53" height="9.34" style="fill:#fafafa"></rect><rect x="385.35" y="242.53" width="4.53" height="9.34" style="fill:#fafafa"></rect><rect x="394.41" y="242.53" width="4.53" height="9.34" style="fill:#fafafa"></rect><rect x="403.47" y="242.53" width="4.53" height="9.34" style="fill:#fafafa"></rect><rect x="376.3" y="258.19" width="4.53" height="9.34" style="fill:#fafafa"></rect><rect x="385.35" y="258.19" width="4.53" height="9.34" style="fill:#fafafa"></rect><rect x="394.41" y="258.19" width="4.53" height="9.34" style="fill:#fafafa"></rect><rect x="403.47" y="258.19" width="4.53" height="9.34" style="fill:#fafafa"></rect><rect x="376.3" y="273.85" width="4.53" height="9.34" style="fill:#fafafa"></rect><rect x="385.35" y="273.85" width="4.53" height="9.34" style="fill:#fafafa"></rect><rect x="394.41" y="273.85" width="4.53" height="9.34" style="fill:#fafafa"></rect><rect x="403.47" y="273.85" width="4.53" height="9.34" style="fill:#fafafa"></rect><rect x="376.3" y="289.51" width="4.53" height="9.34" style="fill:#fafafa"></rect><rect x="385.35" y="289.51" width="4.53" height="9.34" style="fill:#fafafa"></rect><rect x="394.41" y="289.51" width="4.53" height="9.34" style="fill:#fafafa"></rect><rect x="403.47" y="289.51" width="4.53" height="9.34" style="fill:#fafafa"></rect><rect x="376.3" y="305.17" width="4.53" height="9.34" style="fill:#fafafa"></rect><rect x="385.35" y="305.17" width="4.53" height="9.34" style="fill:#fafafa"></rect><rect x="394.41" y="305.17" width="4.53" height="9.34" style="fill:#fafafa"></rect><rect x="403.47" y="305.17" width="4.53" height="9.34" style="fill:#fafafa"></rect><rect x="376.3" y="320.84" width="4.53" height="9.34" style="fill:#fafafa"></rect><rect x="385.35" y="320.84" width="4.53" height="9.34" style="fill:#fafafa"></rect><rect x="394.41" y="320.84" width="4.53" height="9.34" style="fill:#fafafa"></rect><rect x="403.47" y="320.84" width="4.53" height="9.34" style="fill:#fafafa"></rect><path d="M540.65,346V185.73H463.19V346.05S540.06,346.07,540.65,346Z" style="fill:#f5f5f5"></path><rect x="469" y="192.12" width="9.39" height="10.76" style="fill:#e6e6e6"></rect><rect x="487.8" y="192.12" width="9.39" height="10.76" style="fill:#e6e6e6"></rect><rect x="506.58" y="192.12" width="9.39" height="10.76" style="fill:#e6e6e6"></rect><rect x="525.37" y="192.12" width="9.39" height="10.76" style="fill:#e6e6e6"></rect><rect x="469" y="210.17" width="9.39" height="10.76" style="fill:#e6e6e6"></rect><rect x="487.8" y="210.17" width="9.39" height="10.76" style="fill:#e6e6e6"></rect><rect x="506.58" y="210.17" width="9.39" height="10.76" style="fill:#e6e6e6"></rect><rect x="525.37" y="210.17" width="9.39" height="10.76" style="fill:#e6e6e6"></rect><rect x="469" y="228.22" width="9.39" height="10.76" style="fill:#e6e6e6"></rect><rect x="487.8" y="228.22" width="9.39" height="10.76" style="fill:#e6e6e6"></rect><rect x="506.58" y="228.22" width="9.39" height="10.76" style="fill:#e6e6e6"></rect><rect x="525.37" y="228.22" width="9.39" height="10.76" style="fill:#e6e6e6"></rect><rect x="469" y="246.26" width="9.39" height="10.76" style="fill:#e6e6e6"></rect><rect x="487.8" y="246.26" width="9.39" height="10.76" style="fill:#e6e6e6"></rect><rect x="506.58" y="246.26" width="9.39" height="10.76" style="fill:#e6e6e6"></rect><rect x="525.37" y="246.26" width="9.39" height="10.76" style="fill:#e6e6e6"></rect><rect x="469" y="264.32" width="9.39" height="10.76" style="fill:#e6e6e6"></rect><rect x="487.8" y="264.32" width="9.39" height="10.76" style="fill:#e6e6e6"></rect><rect x="506.58" y="264.32" width="9.39" height="10.76" style="fill:#e6e6e6"></rect><rect x="525.37" y="264.32" width="9.39" height="10.76" style="fill:#e6e6e6"></rect><rect x="469" y="282.36" width="9.39" height="10.76" style="fill:#e6e6e6"></rect><rect x="487.8" y="282.36" width="9.39" height="10.76" style="fill:#e6e6e6"></rect><rect x="506.58" y="282.36" width="9.39" height="10.76" style="fill:#e6e6e6"></rect><rect x="525.37" y="282.36" width="9.39" height="10.76" style="fill:#e6e6e6"></rect><rect x="469" y="300.41" width="9.39" height="10.76" style="fill:#e6e6e6"></rect><rect x="487.8" y="300.41" width="9.39" height="10.76" style="fill:#e6e6e6"></rect><rect x="506.58" y="300.41" width="9.39" height="10.76" style="fill:#e6e6e6"></rect><rect x="525.37" y="300.41" width="9.39" height="10.76" style="fill:#e6e6e6"></rect><rect x="469" y="318.46" width="9.39" height="10.76" style="fill:#e6e6e6"></rect><rect x="487.8" y="318.46" width="9.39" height="10.76" style="fill:#e6e6e6"></rect><rect x="506.58" y="318.46" width="9.39" height="10.76" style="fill:#e6e6e6"></rect><rect x="525.37" y="318.46" width="9.39" height="10.76" style="fill:#e6e6e6"></rect><rect x="333.74" y="184.03" width="8.65" height="9.92" style="fill:#fafafa"></rect><rect x="333.74" y="200.66" width="8.65" height="9.92" style="fill:#fafafa"></rect><rect x="333.74" y="217.3" width="8.65" height="9.92" style="fill:#fafafa"></rect><rect x="333.74" y="233.92" width="8.65" height="9.92" style="fill:#fafafa"></rect><rect x="333.74" y="250.55" width="8.65" height="9.92" style="fill:#fafafa"></rect><rect x="333.74" y="267.19" width="8.65" height="9.92" style="fill:#fafafa"></rect><rect x="333.74" y="283.82" width="8.65" height="9.92" style="fill:#fafafa"></rect><rect x="333.74" y="300.45" width="8.65" height="9.92" style="fill:#fafafa"></rect><rect x="345.31" y="184.03" width="8.65" height="9.92" style="fill:#fafafa"></rect><rect x="345.31" y="200.66" width="8.65" height="9.92" style="fill:#fafafa"></rect><rect x="345.31" y="217.3" width="8.65" height="9.92" style="fill:#fafafa"></rect><rect x="345.31" y="233.92" width="8.65" height="9.92" style="fill:#fafafa"></rect><rect x="345.31" y="250.55" width="8.65" height="9.92" style="fill:#fafafa"></rect><rect x="345.31" y="267.19" width="8.65" height="9.92" style="fill:#fafafa"></rect><rect x="345.31" y="283.82" width="8.65" height="9.92" style="fill:#fafafa"></rect><rect x="345.31" y="300.45" width="8.65" height="9.92" style="fill:#fafafa"></rect><rect x="442.92" y="108.65" width="9.39" height="10.76" style="fill:#fafafa"></rect><rect x="442.92" y="126.69" width="9.39" height="10.76" style="fill:#fafafa"></rect><rect x="442.92" y="143.51" width="9.39" height="10.76" style="fill:#fafafa"></rect><rect x="442.92" y="161.55" width="9.39" height="10.76" style="fill:#fafafa"></rect><rect x="442.92" y="179.59" width="9.39" height="10.76" style="fill:#fafafa"></rect><rect x="442.92" y="197.65" width="9.39" height="10.76" style="fill:#fafafa"></rect><rect x="442.92" y="215.69" width="9.39" height="10.76" style="fill:#fafafa"></rect><rect x="442.92" y="233.75" width="9.39" height="10.76" style="fill:#fafafa"></rect><rect x="583.99" y="93" width="9.39" height="10.76" style="fill:#fafafa"></rect><rect x="583.99" y="111.04" width="9.39" height="10.76" style="fill:#fafafa"></rect><rect x="583.99" y="129.1" width="9.39" height="10.76" style="fill:#fafafa"></rect><rect x="583.99" y="147.14" width="9.39" height="10.76" style="fill:#fafafa"></rect><rect x="583.99" y="165.2" width="9.39" height="10.76" style="fill:#fafafa"></rect><rect x="583.99" y="183.24" width="9.39" height="10.76" style="fill:#fafafa"></rect><rect x="583.99" y="201.29" width="9.39" height="10.76" style="fill:#fafafa"></rect><rect x="583.99" y="219.34" width="9.39" height="10.76" style="fill:#fafafa"></rect><rect x="604.1" y="175.91" width="56.56" height="170.16" style="fill:#e6e6e6"></rect><rect x="612.47" y="184.3" width="16.58" height="10.76" style="fill:#fafafa"></rect><rect x="612.47" y="202.36" width="16.58" height="10.76" style="fill:#fafafa"></rect><rect x="612.47" y="220.4" width="16.58" height="10.76" style="fill:#fafafa"></rect><rect x="612.47" y="238.45" width="16.58" height="10.76" style="fill:#fafafa"></rect><rect x="612.47" y="256.5" width="16.58" height="10.76" style="fill:#fafafa"></rect><rect x="612.47" y="274.54" width="16.58" height="10.76" style="fill:#fafafa"></rect><rect x="612.47" y="292.6" width="16.58" height="10.76" style="fill:#fafafa"></rect><rect x="612.47" y="310.64" width="16.58" height="10.76" style="fill:#fafafa"></rect><rect x="634.65" y="184.3" width="16.58" height="10.76" style="fill:#fafafa"></rect><rect x="634.65" y="202.36" width="16.58" height="10.76" style="fill:#fafafa"></rect><rect x="634.65" y="220.4" width="16.58" height="10.76" style="fill:#fafafa"></rect><rect x="634.65" y="238.45" width="16.58" height="10.76" style="fill:#fafafa"></rect><rect x="634.65" y="256.5" width="16.58" height="10.76" style="fill:#fafafa"></rect><rect x="634.65" y="274.54" width="16.58" height="10.76" style="fill:#fafafa"></rect><rect x="634.65" y="292.6" width="16.58" height="10.76" style="fill:#fafafa"></rect><rect x="634.65" y="310.64" width="16.58" height="10.76" style="fill:#fafafa"></rect><path d="M573.26,346V228.22H548.59V346Z" style="fill:#e0e0e0"></path><rect x="550.46" y="232.98" width="2.99" height="8.02" style="fill:#fafafa"></rect><rect x="556.44" y="232.98" width="2.99" height="8.02" style="fill:#fafafa"></rect><rect x="562.41" y="232.98" width="2.99" height="8.02" style="fill:#fafafa"></rect><rect x="568.4" y="232.98" width="2.99" height="8.02" style="fill:#fafafa"></rect><rect x="550.46" y="246.44" width="2.99" height="8.02" style="fill:#fafafa"></rect><rect x="556.44" y="246.44" width="2.99" height="8.02" style="fill:#fafafa"></rect><rect x="562.41" y="246.44" width="2.99" height="8.02" style="fill:#fafafa"></rect><rect x="568.4" y="246.44" width="2.99" height="8.02" style="fill:#fafafa"></rect><rect x="550.46" y="259.89" width="2.99" height="8.02" style="fill:#fafafa"></rect><rect x="556.44" y="259.89" width="2.99" height="8.02" style="fill:#fafafa"></rect><rect x="562.41" y="259.89" width="2.99" height="8.02" style="fill:#fafafa"></rect><rect x="568.4" y="259.89" width="2.99" height="8.02" style="fill:#fafafa"></rect><rect x="550.46" y="273.35" width="2.99" height="8.02" style="fill:#fafafa"></rect><rect x="556.44" y="273.35" width="2.99" height="8.02" style="fill:#fafafa"></rect><rect x="562.41" y="273.35" width="2.99" height="8.02" style="fill:#fafafa"></rect><rect x="568.4" y="273.35" width="2.99" height="8.02" style="fill:#fafafa"></rect><rect x="550.46" y="286.82" width="2.99" height="8.02" style="fill:#fafafa"></rect><rect x="556.44" y="286.82" width="2.99" height="8.02" style="fill:#fafafa"></rect><rect x="562.41" y="286.82" width="2.99" height="8.02" style="fill:#fafafa"></rect><rect x="568.4" y="286.82" width="2.99" height="8.02" style="fill:#fafafa"></rect><rect x="550.46" y="300.27" width="2.99" height="8.02" style="fill:#fafafa"></rect><rect x="556.44" y="300.27" width="2.99" height="8.02" style="fill:#fafafa"></rect><rect x="562.41" y="300.27" width="2.99" height="8.02" style="fill:#fafafa"></rect><rect x="568.4" y="300.27" width="2.99" height="8.02" style="fill:#fafafa"></rect><rect x="550.46" y="313.73" width="2.99" height="8.02" style="fill:#fafafa"></rect><rect x="556.44" y="313.73" width="2.99" height="8.02" style="fill:#fafafa"></rect><rect x="562.41" y="313.73" width="2.99" height="8.02" style="fill:#fafafa"></rect><rect x="568.4" y="313.73" width="2.99" height="8.02" style="fill:#fafafa"></rect><rect x="550.46" y="327.18" width="2.99" height="8.02" style="fill:#fafafa"></rect><rect x="556.44" y="327.18" width="2.99" height="8.02" style="fill:#fafafa"></rect><rect x="562.41" y="327.18" width="2.99" height="8.02" style="fill:#fafafa"></rect><rect x="568.4" y="327.18" width="2.99" height="8.02" style="fill:#fafafa"></rect><rect x="269.73" y="254.54" width="8" height="6.73" style="fill:#e6e6e6"></rect><rect x="285.72" y="254.54" width="8" height="6.73" style="fill:#e6e6e6"></rect><rect x="301.7" y="254.54" width="8" height="6.73" style="fill:#e6e6e6"></rect><rect x="317.7" y="254.54" width="8" height="6.73" style="fill:#e6e6e6"></rect><rect x="269.73" y="265.83" width="8" height="6.73" style="fill:#e6e6e6"></rect><rect x="285.72" y="265.83" width="8" height="6.73" style="fill:#e6e6e6"></rect><rect x="301.7" y="265.83" width="8" height="6.73" style="fill:#e6e6e6"></rect><rect x="317.7" y="265.83" width="8" height="6.73" style="fill:#e6e6e6"></rect><rect x="269.73" y="277.11" width="8" height="6.73" style="fill:#e6e6e6"></rect><rect x="285.72" y="277.11" width="8" height="6.73" style="fill:#e6e6e6"></rect><rect x="301.7" y="277.11" width="8" height="6.73" style="fill:#e6e6e6"></rect><rect x="317.7" y="277.11" width="8" height="6.73" style="fill:#e6e6e6"></rect><rect x="269.73" y="288.4" width="8" height="6.73" style="fill:#e6e6e6"></rect><rect x="285.72" y="288.4" width="8" height="6.73" style="fill:#e6e6e6"></rect><rect x="301.7" y="288.4" width="8" height="6.73" style="fill:#e6e6e6"></rect><rect x="317.7" y="288.4" width="8" height="6.73" style="fill:#e6e6e6"></rect><rect x="269.73" y="299.68" width="8" height="6.73" style="fill:#e6e6e6"></rect><rect x="285.72" y="299.68" width="8" height="6.73" style="fill:#e6e6e6"></rect><rect x="301.7" y="299.68" width="8" height="6.73" style="fill:#e6e6e6"></rect><rect x="317.7" y="299.68" width="8" height="6.73" style="fill:#e6e6e6"></rect><rect x="269.73" y="310.96" width="8" height="6.73" style="fill:#e6e6e6"></rect><rect x="285.72" y="310.96" width="8" height="6.73" style="fill:#e6e6e6"></rect><rect x="301.7" y="310.96" width="8" height="6.73" style="fill:#e6e6e6"></rect><rect x="317.7" y="310.96" width="8" height="6.73" style="fill:#e6e6e6"></rect><rect x="269.73" y="322.25" width="8" height="6.73" style="fill:#e6e6e6"></rect><rect x="285.72" y="322.25" width="8" height="6.73" style="fill:#e6e6e6"></rect><rect x="301.7" y="322.25" width="8" height="6.73" style="fill:#e6e6e6"></rect><rect x="317.7" y="322.25" width="8" height="6.73" style="fill:#e6e6e6"></rect></g><rect x="653.63" y="424.06" width="55.73" height="0.42" style="fill:#ebebeb"></rect><rect x="495.04" y="428.62" width="14.63" height="0.42" style="fill:#ebebeb"></rect><rect x="40.64" y="411.26" width="72.67" height="0.42" style="fill:#ebebeb"></rect><rect x="128.3" y="411.26" width="10.66" height="0.42" style="fill:#ebebeb"></rect><rect x="173.59" y="418.36" width="157.61" height="0.42" style="fill:#ebebeb"></rect></g><g id="freepik--Shadow--inject-47"><path d="M657,451.63c0,3.39-117.57,6.13-262.6,6.13s-262.6-2.74-262.6-6.13,117.57-6.13,262.6-6.13S657,448.25,657,451.63Z" style="fill:#f5f5f5"></path></g><g id="freepik--Device--inject-47"><path d="M57.79,83.91H198.14A13.14,13.14,0,0,1,211.28,97V388.94a17,17,0,0,1-17,17H61.68a17,17,0,0,1-17-17V97A13.14,13.14,0,0,1,57.79,83.91Z" style="fill:#263238"></path><path d="M162.51,91.14l-2.67,5.27H94.64l-3.88-5.27H59.94A8.88,8.88,0,0,0,51,100v284.1a13.41,13.41,0,0,0,13.5,13.33H191.43a13.41,13.41,0,0,0,13.49-13.33V100A8.88,8.88,0,0,0,196,91.14Z" style="fill:#fff"></path><path d="M127.89,90.64A2.68,2.68,0,1,1,125.21,88,2.68,2.68,0,0,1,127.89,90.64Z" style="fill:#fff"></path><path d="M131.85,90.64a1.34,1.34,0,1,1-1.34-1.34A1.34,1.34,0,0,1,131.85,90.64Z" style="fill:#fff"></path><path d="M196,91.14H162.51l-2.67,5.27H94.64l-3.88-5.27H59.94A8.88,8.88,0,0,0,51,100v72.69H204.92V100A8.88,8.88,0,0,0,196,91.14Z" style="fill:#407BFF"></path><text transform="translate(89.68 151.75)" style="font-size:17.06553077697754px;fill:#fff;font-family:Montserrat-SemiBold, Montserrat;font-weight:600"><tspan style="letter-spacing:-0.004005698732337176em">C</tspan><tspan x="11.77" y="0">ar Rent</tspan></text><path d="M144.57,128.38v-5.29A1.39,1.39,0,0,0,144,122h0l-.12-.07-3.75-2h0l0,0a.16.16,0,0,1-.06-.08.2.2,0,0,1,.12-.26l.45-.16a.14.14,0,0,0,.08-.09.12.12,0,0,0-.1-.12c-1.78-.25-8.71-1.15-12.35-.71A10.06,10.06,0,0,0,126,119h0a19.58,19.58,0,0,0-5.54,3.2l-.55.45a17.58,17.58,0,0,0-7.22,1.5,1.59,1.59,0,0,0-.85.93l-.42,1.26a1.43,1.43,0,0,0-.09.5v2.66a1.29,1.29,0,0,0,.92,1.24l.21.07a1.52,1.52,0,0,0,.42.06h0l1.43,0,0-.12h.62a3.13,3.13,0,0,0,.77,1.29,3,3,0,0,0,5.08-1.43l.62,0,0,.14h0l14.25-.34H136s0-.09,0-.13h.6a3,3,0,0,0,6-.14l.6,0v0h0l.06,0,.28-.13h0l.21-.09a1.37,1.37,0,0,0,.81-1.25v-.14Z" style="fill:#fff"></path><polygon points="182.89 273.8 67.05 276.51 67.05 256.7 184 256.7 182.89 273.8" style="fill:#263238"></polygon><g id="freepik--freepik--Car--inject-7--inject-47"><path d="M62.59,261.78v10.05a4.89,4.89,0,0,0,3.46,4.69l.82.25a4.83,4.83,0,0,0,1.56.22l5.41-.13a13.71,13.71,0,1,1,26.52-.63l55.05-1.31a14,14,0,0,1-.13-1.94,13.71,13.71,0,1,1,27.41.12c0,.27,0,.53,0,.79l.22-.09,1.88-.84a5.19,5.19,0,0,0,3-4.73V247.77a5.17,5.17,0,0,0-2.77-4.59l-14.15-7.44a.8.8,0,0,1-.35-.4.75.75,0,0,1,.45-1l1.73-.62a.42.42,0,0,0,.27-.33.4.4,0,0,0-.35-.45c-6.72-.94-32.87-4.36-46.62-2.68C110.18,232.24,95,246,95,246c-11.67-.44-22.56,3.63-27.25,5.66a5.83,5.83,0,0,0-3.2,3.5l-1.61,4.75A6,6,0,0,0,62.59,261.78Z" style="fill:#407BFF"></path><path d="M155.42,274.92a13.79,13.79,0,0,1-.12-1.82c0-.31,0-.62,0-.92l-10-4.08a4.27,4.27,0,0,0-1.84-.3l-34.63,2.28a4,4,0,0,0-1.62.44l-6.58,3.39a13.94,13.94,0,0,1-.33,2.32Z" style="fill:#263238"></path><path d="M187.83,268.23v-.52l-5.63,1.72a14.23,14.23,0,0,1,.49,3.67c0,.27,0,.53,0,.79l.22-.09,1.89-.84A5.2,5.2,0,0,0,187.83,268.23Z" style="fill:#263238"></path><path d="M64.19,275.44a4.79,4.79,0,0,0,1.88,1.08l.82.25a4.83,4.83,0,0,0,1.56.22l5.41-.13a13.36,13.36,0,0,1-.43-2.09Z" style="fill:#263238"></path><path d="M169,258.1a14.52,14.52,0,0,0-1.86.12,15,15,0,0,0-13,16.73l1.3,0a14,14,0,0,1-.13-1.94,13.71,13.71,0,1,1,27.41.12c0,.27,0,.53,0,.79l.22-.09,1.08-.49v-.21a15,15,0,0,0-15-15Z" style="fill:#263238"></path><path d="M87,258.1a15.17,15.17,0,0,0-3.8.49,15,15,0,0,0-10.72,18.3l1.34,0a13.71,13.71,0,1,1,26.52-.63l1.32,0a14.73,14.73,0,0,0,.33-3.11,15,15,0,0,0-15-15Z" style="fill:#263238"></path><path d="M100.17,245.76a.81.81,0,0,0-.31.48.86.86,0,0,0,.64,1l5.75,1.32a4.81,4.81,0,0,0,1.56.08l42.33-5.26a4.52,4.52,0,0,0,2.7-1.36l5.45-5.77a1.16,1.16,0,0,0,.32-.7,1.18,1.18,0,0,0-1.06-1.29c-10.18-1-23.05-1.91-31.14-.92C115.8,234.67,105.24,241.84,100.17,245.76Z" style="fill:#263238"></path><g style="opacity:0.30000000000000004"><path d="M128,250.62a.52.52,0,0,1-.31-.67h0a.86.86,0,0,1,.79-.58l5.05-.21a.36.36,0,0,1,.2,0,.53.53,0,0,1,.32.67h0a.88.88,0,0,1-.8.58l-5.05.21A.69.69,0,0,1,128,250.62Z"></path></g><path d="M165.54,236.15a1.1,1.1,0,0,0-.09,1.53l1.2,1.3a1.12,1.12,0,0,0,.51.31l14.67,4.07a2.88,2.88,0,0,0,.78.1h2.91a5.3,5.3,0,0,0-.47-.28l-14.15-7.45h0a.71.71,0,0,1-.32-1l-4.6,1.15A1.1,1.1,0,0,0,165.54,236.15Z" style="fill:#263238"></path><path d="M95,246l.8.23a2,2,0,0,0,1.78-.38c4.64-3.93,12.7-10,21.4-12.75a.14.14,0,0,0,.09-.08.16.16,0,0,0-.06-.22l-1.08-.55C105.36,236.59,95,246,95,246Z" style="fill:#263238"></path><circle cx="169.01" cy="273.1" r="11.42" style="fill:#263238"></circle><circle cx="169.01" cy="273.1" r="7" style="fill:#fff;isolation:isolate;opacity:0.4"></circle><g style="opacity:0.30000000000000004"><rect x="168.45" y="266.8" width="1.12" height="4.71" rx="0.56" style="fill:#fff"></rect></g><g style="opacity:0.30000000000000004"><rect x="168.45" y="274.69" width="1.12" height="4.71" rx="0.56" style="fill:#fff"></rect></g><g style="opacity:0.30000000000000004"><path d="M171.15,272.51a.57.57,0,0,1-.77-.21h0a.56.56,0,0,1,.21-.76l3.11-1.81a.56.56,0,0,1,.76.21h0a.55.55,0,0,1-.2.76l-3.11,1.81Z" style="fill:#fff"></path></g><g style="opacity:0.30000000000000004"><path d="M164.32,276.44a.57.57,0,0,1-.77-.21h0a.56.56,0,0,1,.21-.76l3.1-1.81h0a.57.57,0,0,1,.77.21h0a.58.58,0,0,1-.2.77l-3.11,1.8Z" style="fill:#fff"></path></g><g style="opacity:0.30000000000000004"><path d="M173.7,276.45l-3.11-1.8a.57.57,0,0,1-.21-.77h0a.56.56,0,0,1,.77-.2l3.11,1.8a.57.57,0,0,1,.2.77h0A.55.55,0,0,1,173.7,276.45Z" style="fill:#fff"></path></g><g style="opacity:0.30000000000000004"><path d="M167.63,272.3a.57.57,0,0,1-.77.21l-3.1-1.81h0a.56.56,0,0,1-.21-.76h0a.57.57,0,0,1,.77-.21l3.11,1.81h0a.56.56,0,0,1,.2.76Z" style="fill:#fff"></path></g><path d="M168.07,273.09a.94.94,0,0,1,.94-.93h0a.94.94,0,1,1-.94.94Z" style="fill:#263238"></path><circle cx="87.03" cy="273.1" r="11.42" style="fill:#263238"></circle><circle cx="87.03" cy="273.1" r="7" style="fill:#fff;isolation:isolate;opacity:0.4"></circle><g style="opacity:0.30000000000000004"><rect x="86.47" y="266.8" width="1.12" height="4.71" rx="0.56" style="fill:#fff"></rect></g><g style="opacity:0.30000000000000004"><rect x="86.47" y="274.69" width="1.12" height="4.71" rx="0.56" style="fill:#fff"></rect></g><g style="opacity:0.30000000000000004"><path d="M89.17,272.51a.56.56,0,0,1-.76-.21h0a.56.56,0,0,1,.2-.76l3.11-1.81h0a.56.56,0,0,1,.76.21h0a.56.56,0,0,1-.21.76l-3.1,1.81Z" style="fill:#fff"></path></g><g style="opacity:0.30000000000000004"><path d="M81.58,276.23h0a.55.55,0,0,1,.2-.76l3.11-1.81a.57.57,0,0,1,.77.21h0a.57.57,0,0,1-.21.77l-3.1,1.8A.57.57,0,0,1,81.58,276.23Z" style="fill:#fff"></path></g><g style="opacity:0.30000000000000004"><path d="M92.49,276.25a.56.56,0,0,1-.77.2l-3.11-1.8a.58.58,0,0,1-.2-.77h0a.56.56,0,0,1,.77-.2l3.1,1.8h0a.57.57,0,0,1,.21.77Z" style="fill:#fff"></path></g><g style="opacity:0.30000000000000004"><path d="M85.65,272.31a.56.56,0,0,1-.76.2l-3.11-1.81h0a.55.55,0,0,1-.2-.76h0a.57.57,0,0,1,.77-.21l3.1,1.81h0a.56.56,0,0,1,.21.76h0Z" style="fill:#fff"></path></g><path d="M87,272.16h0a.94.94,0,1,1-1,.94A.94.94,0,0,1,87,272.16Z" style="fill:#263238"></path><path d="M186.63,251.56a.73.73,0,0,0,.47-.91c-.13-2.4-.64-4.54-2.11-6a.71.71,0,0,0-.75-.51l-8.7.82a.73.73,0,0,0-.41.18.72.72,0,0,0,0,1l2.49,2.69a.83.83,0,0,0,.32.2l8.33,2.52A.72.72,0,0,0,186.63,251.56Z" style="isolation:isolate;opacity:0.30000000000000004"></path><path d="M99.86,246.24a.84.84,0,0,0,.64,1l5.75,1.32a4.31,4.31,0,0,0,1.56.08l1.54-.19,1.84-9.88a80.58,80.58,0,0,0-11,7.16A.83.83,0,0,0,99.86,246.24Z"></path><path d="M136.88,233l-3.4,12.52,4.81-.59L140.14,233Z"></path><path d="M158.62,235.57a1.19,1.19,0,0,0-1.06-1.29c-1.36-.14-2.8-.27-4.25-.4l-.54,8.24.07-.07,5.45-5.77A1.23,1.23,0,0,0,158.62,235.57Z"></path><path d="M109.18,246.68a2.06,2.06,0,0,1-2.07-2.07h0a2.07,2.07,0,0,1,1.62-2l2.77-.61.65,4.63-2.92.07Z" style="fill:#407BFF"></path><polygon points="111.34 246.63 112.15 246.61 111.5 241.98 110.71 242.15 111.34 246.63" style="isolation:isolate;opacity:0.30000000000000004"></polygon></g><path d="M134.46,268.52h0a.13.13,0,0,1-.1-.15c0-.14,3-14.29,3.44-16.22s0-8,0-8a.13.13,0,0,1,.12-.13c.07,0,.13.05.13.12,0,.25.39,6.14,0,8.08s-3.4,16.08-3.43,16.23A.13.13,0,0,1,134.46,268.52Z" style="opacity:0.6000000000000001"></path><path d="M107.29,270.65a.11.11,0,0,1-.1-.06s-3.93-5.81-5.27-8.23-2.15-15.18-2.18-15.72a.13.13,0,0,1,.11-.14.14.14,0,0,1,.14.12c0,.13.79,13.18,2.15,15.62s5.22,8.16,5.25,8.21a.13.13,0,0,1,0,.18Z" style="opacity:0.6000000000000001"></path><path d="M69.2,253.16a.13.13,0,0,1-.12-.08.11.11,0,0,1,.07-.16A121.62,121.62,0,0,1,84,249c2.83-.45,12.48-2.83,12.58-2.86a.13.13,0,0,1,.15.1.12.12,0,0,1-.09.15c-.1,0-9.76,2.41-12.6,2.86a121.72,121.72,0,0,0-14.75,3.87Z" style="opacity:0.6000000000000001"></path><rect x="97.04" y="198.32" width="67.64" height="6.71" style="fill:#263238"></rect><rect x="97.04" y="198.32" width="67.64" height="6.71" style="fill:#fff;opacity:0.7000000000000001"></rect><rect x="103.36" y="302.53" width="60.23" height="6.71" style="fill:#263238"></rect><rect x="103.36" y="302.53" width="60.23" height="6.71" style="fill:#fff;opacity:0.7000000000000001"></rect><rect x="103.36" y="316.43" width="18.12" height="6.71" style="fill:#263238"></rect><rect x="103.36" y="316.43" width="18.12" height="6.71" style="fill:#fff;opacity:0.7000000000000001"></rect><rect x="77.51" y="342.91" width="104.81" height="32.88" style="fill:#407BFF"></rect><rect x="172.43" y="342.91" width="9.89" height="32.88" style="isolation:isolate;opacity:0.30000000000000004"></rect><text transform="translate(110.02 363.63)" style="font-size:14.078269958496094px;fill:#fff;font-family:Montserrat-SemiBold, Montserrat;font-weight:600">Rent</text><path d="M81.39,301.27a8.06,8.06,0,0,1,11.39,11.39l-4.55,4.55a1.62,1.62,0,0,1-2.29,0l-4.55-4.55A8.06,8.06,0,0,1,81.39,301.27Zm5.7,9.44A3.74,3.74,0,1,0,83.35,307h0a3.73,3.73,0,0,0,3.74,3.73Z" style="fill:#263238"></path><path d="M81.39,301.27a8.06,8.06,0,0,1,11.39,11.39l-4.55,4.55a1.62,1.62,0,0,1-2.29,0l-4.55-4.55A8.06,8.06,0,0,1,81.39,301.27Zm5.7,9.44A3.74,3.74,0,1,0,83.35,307h0a3.73,3.73,0,0,0,3.74,3.73Z" style="fill:#fff;opacity:0.7000000000000001"></path><path d="M74.2,253.58l-5-.55-2.88,1.18a2.09,2.09,0,0,0-1.22,1.4h0a1.46,1.46,0,0,0,.15,1.08l0,.09a1.58,1.58,0,0,0,1.58.77l2.89-.4a1.69,1.69,0,0,0,.77-.32l3.33-2.52Z" style="fill:#fff;isolation:isolate"></path></g><g id="freepik--speech-bubble--inject-47"><circle cx="371.15" cy="194.23" r="21.21" transform="translate(145.05 546.86) rotate(-84.96)" style="fill:#407BFF"></circle><polygon points="379.48 208.61 378.01 213.87 384.09 217.11 384.83 210.37 379.48 208.61" style="fill:#407BFF"></polygon><path d="M397,193.46h0a.26.26,0,0,1-.23-.27,20.82,20.82,0,0,0-8.46-17.66.25.25,0,0,1-.06-.35.25.25,0,0,1,.35-.06,21.34,21.34,0,0,1,8.67,18.1A.25.25,0,0,1,397,193.46Z" style="fill:#407BFF"></path><path d="M396.08,199.69l-.09,0a.25.25,0,0,1-.14-.33,7.38,7.38,0,0,0,.56-3,.25.25,0,0,1,.25-.25.24.24,0,0,1,.25.24,7.83,7.83,0,0,1-.6,3.18A.25.25,0,0,1,396.08,199.69Z" style="fill:#407BFF"></path><polygon points="370.76 203.16 360.08 196.02 362.57 192.29 369.73 197.08 378.64 185.29 382.22 187.99 370.76 203.16" style="fill:#fff"></polygon></g><g id="freepik--Character--inject-47"><polygon points="695.14 402.19 200.53 413.79 200.53 329.19 699.9 329.19 695.14 402.19" style="fill:#263238"></polygon><polygon points="695.14 402.19 200.53 413.79 200.53 329.19 699.9 329.19 695.14 402.19" style="isolation:isolate;opacity:0.5"></polygon><g id="freepik--freepik-car-inject-7--inject-47"><path d="M181.51,350.9v42.9a20.94,20.94,0,0,0,14.77,20l3.49,1.06a20.87,20.87,0,0,0,6.66.93l23.1-.54a58.52,58.52,0,1,1,113.23-2.7l235-5.59a57.3,57.3,0,0,1-.55-8.28,58.52,58.52,0,1,1,117,.51c0,1.14-.1,2.26-.1,3.39.31-.13.63-.25.94-.4l8-3.59a22.15,22.15,0,0,0,13-20.18V291.05a22.1,22.1,0,0,0-11.83-19.58L644,239.7a3.19,3.19,0,0,1,.4-5.81l7.39-2.65a1.72,1.72,0,0,0-.34-3.34c-28.7-4-140.35-18.6-199-11.43-67.7,8.29-132.58,67-132.58,67C270,281.64,223.47,299,203.45,307.69a25,25,0,0,0-13.69,14.92l-6.85,20.3A25,25,0,0,0,181.51,350.9Z" style="fill:#407BFF"></path><path d="M577.87,407a59.29,59.29,0,0,1-.51-7.77c0-1.33,0-2.64.13-3.94L535,377.88a17.87,17.87,0,0,0-7.85-1.28l-147.84,9.7a17.63,17.63,0,0,0-6.93,1.91l-28.09,14.45a60.23,60.23,0,0,1-1.43,9.91Z" style="fill:#263238"></path><path d="M716.22,378.43V376.2l-24,7.36a59.1,59.1,0,0,1,2.11,15.65c0,1.14-.1,2.26-.1,3.39.31-.13.63-.25.94-.4l8.06-3.59A22.15,22.15,0,0,0,716.22,378.43Z" style="fill:#263238"></path><path d="M188.33,409.2a21,21,0,0,0,8,4.62l3.5,1.06a20.81,20.81,0,0,0,6.65.93l23.1-.54a57.54,57.54,0,0,1-1.8-8.92Z" style="fill:#263238"></path><path d="M635.93,335.19a64,64,0,0,0-63.53,71.93L578,407a57.3,57.3,0,0,1-.55-8.28,58.52,58.52,0,1,1,117,.51c0,1.14-.09,2.26-.09,3.39.31-.13.63-.25.94-.4l4.62-2.1v-.89a64.09,64.09,0,0,0-64-64Z" style="fill:#263238"></path><path d="M285.87,335.19a64,64,0,0,0-62,80.2l5.68-.12a58.52,58.52,0,1,1,113.24-2.7l5.67-.13a64,64,0,0,0-62.64-77.25Z" style="fill:#263238"></path><path d="M341.58,286a4.25,4.25,0,0,0-1.37,2.35,4.2,4.2,0,0,0,2.66,5l24.43,6.85a16.7,16.7,0,0,0,6.63.5L555.1,278.25a18.49,18.49,0,0,0,11.63-6.45l23.76-27.69a6,6,0,0,0,1.43-3.38c.32-3.15-1.65-6-4.42-6.35-43.38-5.75-98.23-11-132.86-6.75C409.25,233.17,363.54,267.29,341.58,286Z" style="fill:#407BFF"></path><path d="M342.4,286a4.26,4.26,0,0,0-1.38,2.35,4.21,4.21,0,0,0,2.67,5l24.43,6.85a16.7,16.7,0,0,0,6.63.5l177.11-12.14c4.41-.56,11.22-8.67,16-15.24l23.41-29.21a6.18,6.18,0,0,0,1.43-3.38c.32-3.15-1.66-6-4.42-6.35-43.38-5.75-98.23-11-132.87-6.75C410.06,233.17,364.36,267.29,342.4,286Z" style="fill:#fff;isolation:isolate;opacity:0.8"></path><g style="opacity:0.30000000000000004"><path d="M460.74,303.23a2.23,2.23,0,0,1-1.34-2.86h0a3.73,3.73,0,0,1,3.37-2.48l21.56-.91a2.28,2.28,0,0,1,.86.13,2.25,2.25,0,0,1,1.36,2.88h0a3.79,3.79,0,0,1-3.39,2.48l-21.56.89A2.31,2.31,0,0,1,460.74,303.23Z"></path></g><path d="M621.08,241.46a4.61,4.61,0,0,0-.38,6.52l5.11,5.56a4.73,4.73,0,0,0,2.16,1.31l62.63,17.37a13.44,13.44,0,0,0,3.34.45h12.44a20,20,0,0,0-2-1.2L644,239.66h0a3.07,3.07,0,0,1-1.39-4.12L623,240.45A4.67,4.67,0,0,0,621.08,241.46Z" style="fill:#407BFF"></path><path d="M231.07,315.86l-21.37-2.33-12.27,5a8.8,8.8,0,0,0-5.2,6h0a6.17,6.17,0,0,0,.63,4.62l.22.37a6.73,6.73,0,0,0,6.74,3.3l12.32-1.7a7.18,7.18,0,0,0,3.31-1.37L229.67,319Z" style="fill:#fff;isolation:isolate"></path><path d="M319.85,283.48l3.4,1a8.28,8.28,0,0,0,7.59-1.63c19.81-16.76,54.24-42.46,91.4-54.44a.73.73,0,0,0,.39-.32.69.69,0,0,0-.27-.95l-4.62-2.37C364.14,243.33,319.85,283.48,319.85,283.48Z" style="fill:#407BFF"></path><path d="M319.85,283.48l3.4,1a8.28,8.28,0,0,0,7.59-1.63c19.81-16.76,54.24-42.46,91.4-54.44a.73.73,0,0,0,.39-.32.69.69,0,0,0-.27-.95l-4.62-2.37C364.14,243.33,319.85,283.48,319.85,283.48Z" style="fill:#fff;isolation:isolate;opacity:0.8"></path><path d="M522.94,306.1,342.84,319l3.39,22.21a46.9,46.9,0,0,0,7.39,19l15.05,22.5,153.72-20.79,72.67-55.82Z" style="fill:#fff;isolation:isolate;opacity:0.2"></path><circle cx="635.87" cy="399.2" r="48.76" style="fill:#263238"></circle><circle cx="635.87" cy="399.2" r="29.89" style="fill:#fff;isolation:isolate;opacity:0.4"></circle><g style="opacity:0.30000000000000004"><rect x="633.48" y="372.32" width="4.79" height="20.1" rx="2.39" style="fill:#fff"></rect></g><g style="opacity:0.30000000000000004"><rect x="633.48" y="406" width="4.79" height="20.1" rx="2.39" style="fill:#fff"></rect></g><g style="opacity:0.30000000000000004"><path d="M645,396.7a2.39,2.39,0,0,1-3.26-.9h0a2.39,2.39,0,0,1,.88-3.26l13.26-7.7a2.4,2.4,0,0,1,3.28.88h0a2.4,2.4,0,0,1-.88,3.26L645,396.68Z" style="fill:#fff"></path></g><g style="opacity:0.30000000000000004"><path d="M615.84,413.47a2.39,2.39,0,0,1-3.26-.88h0a2.38,2.38,0,0,1,.88-3.25l13.26-7.7h0a2.4,2.4,0,0,1,3.27.87h0a2.41,2.41,0,0,1-.87,3.28l-13.27,7.7Z" style="fill:#fff"></path></g><g style="opacity:0.30000000000000004"><path d="M655.89,413.53l-13.26-7.7a2.4,2.4,0,0,1-.88-3.28h0a2.4,2.4,0,0,1,3.28-.86l13.26,7.7a2.4,2.4,0,0,1,.88,3.26h0A2.4,2.4,0,0,1,655.89,413.53Z" style="fill:#fff"></path></g><g style="opacity:0.30000000000000004"><path d="M630,395.81a2.39,2.39,0,0,1-3.26.87L613.46,389h0a2.39,2.39,0,0,1-.87-3.26h0a2.39,2.39,0,0,1,3.26-.87l13.27,7.7h0a2.39,2.39,0,0,1,.87,3.26h0Z" style="fill:#fff"></path></g><path d="M631.86,399.19a4,4,0,0,1,4-4h0a4,4,0,1,1-4,4Z" style="fill:#263238"></path><circle cx="285.87" cy="399.21" r="48.76" style="fill:#263238"></circle><circle cx="285.87" cy="399.21" r="29.89" style="fill:#fff;isolation:isolate;opacity:0.4"></circle><g style="opacity:0.30000000000000004"><rect x="283.47" y="372.32" width="4.79" height="20.1" rx="2.39" style="fill:#fff"></rect></g><g style="opacity:0.30000000000000004"><rect x="283.47" y="406" width="4.79" height="20.1" rx="2.39" style="fill:#fff"></rect></g><g style="opacity:0.30000000000000004"><path d="M295,396.7a2.36,2.36,0,0,1-3.23-.9h0a2.37,2.37,0,0,1,.86-3.26l13.27-7.7h0a2.38,2.38,0,0,1,3.26.88h0a2.38,2.38,0,0,1-.88,3.26L295,396.68Z" style="fill:#fff"></path></g><g style="opacity:0.30000000000000004"><path d="M262.57,412.59h0a2.38,2.38,0,0,1,.88-3.25l13.26-7.7a2.4,2.4,0,0,1,3.28.86h0a2.4,2.4,0,0,1-.88,3.28l-13.26,7.7A2.41,2.41,0,0,1,262.57,412.59Z" style="fill:#fff"></path></g><g style="opacity:0.30000000000000004"><path d="M309.15,412.66a2.39,2.39,0,0,1-3.26.87l-13.27-7.7a2.4,2.4,0,0,1-.86-3.28h0a2.37,2.37,0,0,1,3.26-.86l13.26,7.7h0a2.39,2.39,0,0,1,.87,3.26h0Z" style="fill:#fff"></path></g><g style="opacity:0.30000000000000004"><path d="M280,395.83a2.39,2.39,0,0,1-3.27.85L263.45,389h0a2.38,2.38,0,0,1-.88-3.26h0a2.41,2.41,0,0,1,3.28-.88l13.26,7.7h0a2.39,2.39,0,0,1,.87,3.26h0Z" style="fill:#fff"></path></g><path d="M285.87,395.19h0a4,4,0,1,1-4,4A4,4,0,0,1,285.87,395.19Z" style="fill:#263238"></path><path d="M711.11,307.23a3.08,3.08,0,0,0,2-3.86c-.56-10.26-2.74-19.4-9-25.69a3.07,3.07,0,0,0-3.18-2.17L663.75,279a3.08,3.08,0,0,0-2,5.13l10.64,11.47a3.08,3.08,0,0,0,1.36.85l35.57,10.78A3.16,3.16,0,0,0,711.11,307.23Z" style="isolation:isolate;opacity:0.30000000000000004"></path><path d="M340.21,288.3a4.2,4.2,0,0,0,2.66,5l24.44,6.85a27.08,27.08,0,0,0,6.79,1.16l7.69-.51-7.26-39.2c-16.75,11-17.9,11.51-32.95,24.32A4.25,4.25,0,0,0,340.21,288.3Z" style="fill:#263238"></path><path d="M499.37,226.37,484,293.3l20.08-1.45L513.27,227Q506.22,226.58,499.37,226.37Z" style="fill:#263238"></path><path d="M563.08,279.34l28.2-35.23a6.12,6.12,0,0,0,1.46-3.43c.31-3.15-1.67-6-4.43-6.33-5.78-.79-11.93-1.54-18.08-2.28" style="fill:#263238"></path><path d="M362.43,295.11a8.83,8.83,0,0,1-8.94-8.74h0a8.85,8.85,0,0,1,6.84-8.72l11.78-2.76,3,19.74-12.44.47Z" style="fill:#407BFF"></path><polygon points="371.65 294.76 375.1 294.63 372.11 274.89 368.74 275.69 371.65 294.76" style="isolation:isolate;opacity:0.30000000000000004"></polygon></g><path d="M488.35,379.4h-.05a.25.25,0,0,1-.19-.3c.13-.61,13-61,14.65-69.26.63-3.15.86-9.2.67-18a.25.25,0,0,1,.25-.25h0a.25.25,0,0,1,.25.24c.19,8.81,0,14.89-.68,18.08-1.65,8.24-14.52,68.66-14.65,69.27A.26.26,0,0,1,488.35,379.4Z" style="opacity:0.6000000000000001"></path><path d="M372.36,388.46a.26.26,0,0,1-.21-.11c-.16-.25-16.77-24.83-22.48-35.11-5.87-10.58-9.66-61.29-9.82-63.45a.25.25,0,0,1,.23-.26.24.24,0,0,1,.27.23c0,.52,3.94,52.75,9.76,63.24,5.69,10.26,22.29,34.83,22.46,35.07a.26.26,0,0,1-.07.35A.23.23,0,0,1,372.36,388.46Z" style="opacity:0.6000000000000001"></path><path d="M209.7,313.78a.25.25,0,0,1-.23-.15.26.26,0,0,1,.14-.33c12.74-5.21,53.57-15,63.15-16.57,12.07-1.93,53.31-12.11,53.72-12.21a.26.26,0,0,1,.31.19.25.25,0,0,1-.19.3c-.41.1-41.67,10.28-53.76,12.22-9.3,1.49-50.62,11.45-63,16.54Z" style="opacity:0.6000000000000001"></path><path d="M621.08,241.46a4.61,4.61,0,0,0-.38,6.52l5.11,5.56a4.73,4.73,0,0,0,2.16,1.31l62.63,17.37a13.44,13.44,0,0,0,3.34.45h12.44a20,20,0,0,0-2-1.2L644,239.66h0a3.07,3.07,0,0,1-1.39-4.12L623,240.45A4.67,4.67,0,0,0,621.08,241.46Z" style="fill:#fff;isolation:isolate;opacity:0.8"></path><path d="M413.65,268s7.48,26.32,11.12,27.25c6.58,1.7,28.84-2.12,28.4-2.86l-1.83-9.27s-22.72-1.63-23.19-1.45l-7.21-16.5Z" style="fill:#e1715b"></path><path d="M421,269.8s2.27-2.11,2.33-4.68.79-4.59.71-6.5-1.68.12-2.31,1.37-1.36,2.66-2.23,2-4.6-9-5.9-9.71-1.11.81-1.11.81-1-2-1.86-1.84c-.23,0-.71.52-.41,1.5.67,2.21,2.31,6.78,2.31,6.78-.09-.26-2.52-5.76-3-6.53-.61-1-1.42-1.18-2-.8-.81.53,2,7.44,1.87,7.82,0,0-1.46-4-2.71-4.23s-.46,2.4.66,4.55c1,2,2.54,6.11,3.78,8,1.53,2.34,3.09,3.57,5.68,3.17A8.86,8.86,0,0,0,421,269.8Z" style="fill:#e1715b"></path><path d="M414.64,258.45a.12.12,0,0,1-.12-.08c-.58-1.69-1.25-3.35-2-5a.13.13,0,0,1,.06-.17.14.14,0,0,1,.17.06c.72,1.62,1.39,3.3,2,5a.13.13,0,0,1-.07.16Z" style="opacity:0.30000000000000004"></path><path d="M409.92,261.76a.14.14,0,0,1-.1-.05.12.12,0,0,1,0-.17,12,12,0,0,1,6.35-2.66.13.13,0,0,1,.14.11.12.12,0,0,1-.11.14,11.78,11.78,0,0,0-6.22,2.6A.11.11,0,0,1,409.92,261.76Z" style="opacity:0.30000000000000004"></path><path d="M417.36,268.1a.12.12,0,0,1-.11-.08,4.17,4.17,0,0,1,1.61-5.1.12.12,0,0,1,.17,0,.14.14,0,0,1,0,.18,4,4,0,0,0-1.63,2.12,4,4,0,0,0,.11,2.68.14.14,0,0,1-.07.16Z" style="opacity:0.30000000000000004"></path><path d="M472.31,259.23s8.33-7,8-9.38-1.7-1.63-1.7-1.63,2.89-5.67.05-6.65-3,0-3,0,1.13-4.63-1.13-6c-1.71-1.07-2.44,1.06-2.44,1.06s-3.27-5.08-7.18-5c-1.93.15-2.89,1.39-2.61,2.88a1.42,1.42,0,0,0,0,.2s-7.9-3.45-11.57-1.28,1.12,4.52,1.12,4.52-7.7-.8-9.2,2.3c-1.2,2.46,2.22,4.11,2.22,4.11a7.47,7.47,0,0,0-2.25,1.35,3,3,0,0,0,1.89,5.28h.07c.41,0,1.14.1,1.44-.18,0,0-1.33,2.78,1.52,3.68s4.21-2.41,4.21-2.41Z" style="fill:#263238"></path><path d="M469.69,277.34s-.46-4,2.39-13.77l-.51-.25c.39-1.36.81-2.62,1.21-3.71a.18.18,0,0,0,0-.05l-13.38,8.22c.31,3.13-.83,9.16-1.5,11.7l3.46,5.87Z" style="fill:#e1715b"></path><path d="M459.17,272.17l7.69-1.71c-.7,2.39-2.83,5.21-8.17,5.43A23.19,23.19,0,0,0,459.17,272.17Z" style="opacity:0.2"></path><path d="M450.24,244.69c-1.58,3.08-2.15,9.88,2.77,8.47S453,239.38,450.24,244.69Z" style="fill:#263238"></path><path d="M472.9,253.08c-.92,8.46-1.27,13.25-5.77,17.37-6.76,6.19-16.83,1.91-18.46-6.68-1.47-7.74.28-20.28,8.77-23.18A11.73,11.73,0,0,1,472.9,253.08Z" style="fill:#e1715b"></path><path d="M460.64,255c0,.86-.53,1.54-1.1,1.51s-1-.76-1-1.63.54-1.55,1.1-1.52S460.68,254.09,460.64,255Z" style="fill:#263238"></path><path d="M452.11,254.72c0,.87-.53,1.55-1.1,1.52s-1-.77-.95-1.63.53-1.55,1.1-1.52S452.15,253.85,452.11,254.72Z" style="fill:#263238"></path><path d="M454.91,254.37s-3,4.19-3.92,5.9c1.16,1.15,3.26.75,3.26.75Z" style="fill:#fd504e"></path><path d="M462.74,250.29a.39.39,0,0,1-.39-.11,3.3,3.3,0,0,0-2.77-1,.41.41,0,0,1-.16-.8,4.1,4.1,0,0,1,3.51,1.27.41.41,0,0,1,0,.57A.32.32,0,0,1,462.74,250.29Z" style="fill:#263238"></path><path d="M448.49,250.8a.42.42,0,0,1-.14-.71,4,4,0,0,1,3.61-.82.41.41,0,0,1,.26.51.4.4,0,0,1-.51.26,3.14,3.14,0,0,0-2.84.69A.41.41,0,0,1,448.49,250.8Z" style="fill:#263238"></path><path d="M456.72,266.69c.08,0,0,0,0,0Z" style="fill:#263238"></path><path d="M455.4,263.41c1.37-.43,3.88-1.35,5.1-2.63a3.75,3.75,0,0,1,.35.94,3.67,3.67,0,0,1,0,1.75c-.3,1.17-1.33,2.44-4.08,3.2l-.06,0h0s-1.49.38-2.24-3C454.46,263.68,454.83,263.59,455.4,263.41Z" style="fill:#263238"></path><path d="M455.4,263.41l.53.91c2.59-.72,4.32-1.58,4.92-2.6a3.75,3.75,0,0,0-.35-.94C459.28,262.06,456.77,263,455.4,263.41Z" style="fill:#fff"></path><path d="M456.78,266.67c2.75-.76,3.78-2,4.08-3.2a9.16,9.16,0,0,0-2.89,1.46A3.48,3.48,0,0,0,456.78,266.67Z" style="fill:#fb504e"></path><path d="M470.36,259.63a4.38,4.38,0,0,1-1.9-1.57,4,4,0,0,1-.28-2.27,21.33,21.33,0,0,1,.34-2.4c-.75.38-1.67-.22-2.08-1a6.54,6.54,0,0,1-.49-3.7,2.78,2.78,0,0,1-2.68-.83,2.14,2.14,0,0,1,0-2.71,24.31,24.31,0,0,1-9.38-.58c.21.39,0,.86-.31,1.21a7.38,7.38,0,0,1-4.48,2.74c-.26.05-.58.06-.73-.16a.71.71,0,0,1-.06-.41,6.57,6.57,0,0,1,2.39-4.43,14.94,14.94,0,0,1,4.49-2.48,28.47,28.47,0,0,1,8.3-2,16.88,16.88,0,0,1,8.36,1.45,4.28,4.28,0,0,1,1.51,1.07,4.48,4.48,0,0,1,.75,1.61,29.3,29.3,0,0,1,1.18,10.69" style="fill:#263238"></path><path d="M475.92,260.31a8,8,0,0,1-4.21,4.49c-2.59,1.14-4.31-1.09-3.94-3.75.33-2.4,2.07-5.88,4.84-5.89S476.82,257.85,475.92,260.31Z" style="fill:#e1715b"></path><path d="M470.1,260.48h0a.25.25,0,0,1-.21-.29,4.51,4.51,0,0,1,.94-2.1,2.92,2.92,0,0,1,1.65-1.09,1.82,1.82,0,0,1,1.87.74.27.27,0,0,1-.08.35.26.26,0,0,1-.35-.09,1.31,1.31,0,0,0-1.34-.51,2.44,2.44,0,0,0-1.36.91,4.06,4.06,0,0,0-.83,1.87A.25.25,0,0,1,470.1,260.48Z" style="opacity:0.2"></path><path d="M457.27,291.15s-24.87,7.27-33.9,7.59-29-3.9-29-3.9l1.13-9.18,29.34,1.5,31.9-10.65Z" style="fill:#e1715b"></path><path d="M448.38,296.76l4.89-20.21,12.42-2.17c.55-.08,10.63-.91,13.66,10.16l.67,8.79Z" style="fill:#263238"></path><path d="M460.08,294.74c-.69,0-20,3.53-20,3.53l-4-15.74a162.35,162.35,0,0,1,17.22-6c9.2-2.49,17.82-3.26,19.8,1C476.83,285.71,460.08,294.74,460.08,294.74Z" style="fill:#263238"></path><path d="M420,287.06l4.83.25,12.55-4.3s2.6-1.12,1.94-.89-5.86-.32-6.21-.26S420,287.06,420,287.06Z" style="isolation:isolate;opacity:0.30000000000000004"></path><path d="M385.85,281.49c-.57.34-7.22,7.21-7.22,7.21l1.3,8.52,8.36-8.63Z" style="fill:#263238"></path><path d="M395.86,299.26h0a3,3,0,0,1-4-1.35L378.62,271a3,3,0,0,1,1.35-4h0a3,3,0,0,1,4,1.35l13.27,26.88A3,3,0,0,1,395.86,299.26Z" style="fill:#263238"></path><path d="M405.41,286.4l-10.92-1.47-3.15-3.82s-5.55-.5-6.74.49-2.39,4.14-2.39,4.14-1.45,2.59,1,3.94c0,0-1.57,2.3,1.23,3.92,0,0-2.06,1.17.89,2.38a9.15,9.15,0,0,0,7.11-.14,15.2,15.2,0,0,1,5-.37l9.93,1.75Z" style="fill:#e1715b"></path></g></svg>
